<svg width="24" height="24" viewBox="0 0 24 24" fill="none" xmlns="http://www.w3.org/2000/svg">
<path d="M12 0C18.6274 0 24 5.37258 24 12C24 18.6274 18.6274 24 12 24C5.37258 24 0 18.6274 0 12C0 5.37258 5.37258 0 12 0Z" fill="#2D0981"/>
<path d="M11.999 5.59961C13.7368 5.59961 13.9543 5.60762 14.6367 5.63867C15.318 5.66987 15.7834 5.77732 16.1914 5.93555C16.6127 6.09888 16.9692 6.31782 17.3252 6.67383C17.6811 7.02949 17.8995 7.38677 18.0635 7.80762C18.2207 8.21444 18.3293 8.6793 18.3613 9.36035C18.392 10.043 18.3994 10.2618 18.3994 12C18.3994 13.7375 18.392 13.9554 18.3613 14.6377C18.3293 15.3188 18.2208 15.7843 18.0635 16.1914C17.8995 16.6122 17.6812 16.9695 17.3252 17.3252C16.9697 17.6811 16.613 17.9 16.1924 18.0635C15.7852 18.2217 15.319 18.3301 14.6377 18.3613C13.9551 18.3924 13.7372 18.3994 11.999 18.3994C10.2614 18.3994 10.043 18.3924 9.36035 18.3613C8.67934 18.3301 8.21377 18.2217 7.80664 18.0635C7.38622 17.9 7.02926 17.681 6.67383 17.3252C6.31797 16.9695 6.09915 16.6123 5.93555 16.1914C5.77741 15.7845 5.67001 15.319 5.63867 14.6377C5.60775 13.9553 5.59961 13.7376 5.59961 12C5.59961 10.2618 5.60716 10.043 5.6377 9.36035C5.66837 8.67957 5.77696 8.21457 5.93555 7.80762C6.09951 7.38692 6.31798 7.02948 6.67383 6.67383C7.0295 6.31802 7.38678 6.09901 7.80762 5.93555C8.21455 5.77728 8.67999 5.66987 9.36133 5.63867C10.0438 5.60761 10.262 5.59961 11.999 5.59961ZM11.4258 6.75195C10.2333 6.75329 10.0044 6.76142 9.41406 6.78809C8.79008 6.81676 8.45118 6.92079 8.22559 7.00879C7.92699 7.12505 7.71322 7.26334 7.48926 7.4873C7.2653 7.71128 7.12673 7.925 7.01074 8.22363C6.92315 8.44924 6.81857 8.78815 6.79004 9.41211C6.75938 10.0865 6.75391 10.2883 6.75391 11.9971C6.75391 13.7062 6.75937 13.9093 6.79004 14.584C6.81846 15.2076 6.92317 15.5462 7.01074 15.7715C7.12694 16.0701 7.2655 16.283 7.48926 16.5068C7.71326 16.7308 7.92692 16.8703 8.22559 16.9863C8.45132 17.0739 8.79011 17.1782 9.41406 17.207C10.0887 17.2377 10.2913 17.2441 12 17.2441C13.7084 17.2441 13.9117 17.2377 14.5859 17.207C15.2096 17.1785 15.5491 17.0743 15.7744 16.9863C16.073 16.8704 16.2859 16.7316 16.5098 16.5078C16.7337 16.284 16.8733 16.071 16.9893 15.7725C17.0769 15.5471 17.1814 15.208 17.21 14.584C17.2406 13.9095 17.2471 13.7067 17.2471 11.999C17.2471 10.291 17.2406 10.0878 17.21 9.41309C17.1815 8.78946 17.0768 8.45088 16.9893 8.22559C16.873 7.92692 16.7338 7.71326 16.5098 7.48926C16.286 7.26543 16.073 7.12669 15.7744 7.01074C15.5488 6.92316 15.2097 6.81856 14.5859 6.79004C13.9115 6.75939 13.7084 6.75391 12 6.75391C11.7865 6.75391 11.5961 6.75364 11.4258 6.75391V6.75195ZM12 8.71387C13.8149 8.71387 15.2859 10.1851 15.2861 12C15.2861 13.8151 13.8151 15.2861 12 15.2861C10.185 15.286 8.71387 13.815 8.71387 12C8.71412 10.1852 10.1852 8.71401 12 8.71387ZM12 9.86719C10.8218 9.86728 9.86719 10.8228 9.86719 12.001C9.86742 13.1789 10.8219 14.1337 12 14.1338C13.178 14.1338 14.1336 13.1789 14.1338 12.001C14.1338 10.8227 13.1781 9.86719 12 9.86719ZM15.417 7.81641C15.8408 7.81664 16.1846 8.16014 16.1846 8.58398C16.1846 9.00784 15.8408 9.35133 15.417 9.35156C14.993 9.35156 14.6484 9.00799 14.6484 8.58398C14.6485 8.15986 14.993 7.81641 15.417 7.81641Z" fill="white"/>
</svg>
