<svg width="24" height="24" viewBox="0 0 24 24" fill="none" xmlns="http://www.w3.org/2000/svg">
<path d="M12 0C18.6274 0 24 5.37258 24 12C24 18.6274 18.6274 24 12 24C5.37258 24 0 18.6274 0 12C0 5.37258 5.37258 0 12 0Z" fill="#2D0981"/>
<path d="M8.4802 9.93848H5.76074V18.1093H8.4802V9.93848Z" fill="white"/>
<path d="M8.65899 7.41135C8.64134 6.6102 8.06844 6 7.13813 6C6.20781 6 5.59961 6.6102 5.59961 7.41135C5.59961 8.1959 6.18984 8.82367 7.10282 8.82367H7.1202C8.06844 8.82367 8.65899 8.1959 8.65899 7.41135Z" fill="white"/>
<path d="M18.2875 13.4249C18.2875 10.9151 16.9459 9.74707 15.1564 9.74707C13.7125 9.74707 13.0661 10.5401 12.7051 11.0965V9.93915H9.98535C10.0212 10.7059 9.98535 18.11 9.98535 18.11H12.7051V13.5467C12.7051 13.3025 12.7228 13.0589 12.7947 12.8841C12.9912 12.3962 13.4387 11.8911 14.1901 11.8911C15.1745 11.8911 15.568 12.6404 15.568 13.7384V18.1098H18.2874L18.2875 13.4249Z" fill="white"/>
</svg>
