<svg width="24" height="24" viewBox="0 0 24 24" fill="none" xmlns="http://www.w3.org/2000/svg">
<path d="M12 0C18.6274 0 24 5.37258 24 12C24 18.6274 18.6274 24 12 24C5.37258 24 0 18.6274 0 12C0 5.37258 5.37258 0 12 0Z" fill="#2D0981"/>
<path d="M10.0702 8.76887L6.22823 6.87061C6.19536 6.85435 6.16402 6.84668 6.13571 6.84668C6.09538 6.84668 6.06127 6.86235 6.03726 6.89096C6.01377 6.91893 6 6.95938 6 7.00998V15.1592C6 15.2979 6.10271 15.4621 6.22823 15.5241L9.77869 17.2783C9.82802 17.3027 9.87501 17.3143 9.91747 17.3143C10.0371 17.3143 10.121 17.2228 10.121 17.0693V8.8501C10.121 8.81572 10.1014 8.78425 10.0702 8.76887Z" fill="white"/>
<path d="M14.5703 15.5711L18.0204 17.2757C18.2087 17.3687 18.3627 17.2746 18.3627 17.0666V9.48145L14.5703 15.5711Z" fill="white"/>
<path d="M10.4854 9.37891V13.5553L14.2422 15.4115L10.4854 9.37891Z" fill="white"/>
<path d="M18.2727 8.74854L14.3565 6.81362C14.3387 6.80482 14.3194 6.80073 14.3 6.80023C14.2987 6.80018 14.2975 6.7998 14.2962 6.7998C14.2486 6.7998 14.2012 6.82344 14.1755 6.8646L11.7617 10.7406L14.4562 15.0674L18.3103 8.87877C18.3388 8.83284 18.3215 8.77264 18.2727 8.74854Z" fill="white"/>
</svg>
