<svg width="24" height="24" viewBox="0 0 24 24" fill="none" xmlns="http://www.w3.org/2000/svg">
<path d="M12 0C18.6274 0 24 5.37258 24 12C24 18.6274 18.6274 24 12 24C5.37258 24 0 18.6274 0 12C0 5.37258 5.37258 0 12 0Z" fill="#2D0981"/>
<path d="M10.0039 14.4409L9.79973 17.4997C10.0997 17.4997 10.2323 17.3625 10.3997 17.1997L11.8411 15.7982L14.8397 18.0136C15.3916 18.3181 15.7899 18.1605 15.9273 17.5013L17.8958 8.225C18.0974 7.41698 17.5878 7.0505 17.0599 7.29018L5.50088 11.7473C4.71187 12.0637 4.71647 12.5039 5.35706 12.7001L8.32336 13.6259L15.1907 9.29341C15.5149 9.09682 15.8124 9.20251 15.5682 9.41925L10.0037 14.4407L10.0039 14.4409Z" fill="white"/>
</svg>
