<svg width="24" height="24" viewBox="0 0 24 24" fill="none" xmlns="http://www.w3.org/2000/svg">
<path d="M12 0C18.6274 0 24 5.37258 24 12C24 18.6274 18.6274 24 12 24C5.37258 24 0 18.6274 0 12C0 5.37258 5.37258 0 12 0Z" fill="#2D0981"/>
<path d="M13.5461 11.6577L17.6409 7H16.6704L13.1159 11.0441L10.2755 7H7L11.2945 13.116L7 18H7.97052L11.7248 13.7289L14.7245 18H18L13.5461 11.6577ZM12.2173 13.1694L11.7822 12.5605L8.3199 7.715H9.81046L12.6039 11.6255L13.039 12.2344L16.6712 17.318H15.1806L12.2173 13.1694Z" fill="white"/>
</svg>
