<svg width="170" height="69" viewBox="0 0 170 69" fill="none" xmlns="http://www.w3.org/2000/svg">
<path d="M63.6449 27.436H68.7389C70.0229 27.436 71.0309 27.748 71.7629 28.372C72.5069 28.996 72.8789 29.788 72.8789 30.748C72.8789 32.152 72.0629 33.094 70.4309 33.574C71.2589 33.694 71.9189 34.054 72.4109 34.654C72.9149 35.242 73.1669 35.926 73.1669 36.706C73.1669 37.69 72.7949 38.488 72.0509 39.1C71.3069 39.7 70.2989 40 69.0269 40H63.6449V27.436ZM66.1829 29.38V32.638H68.4689C69.0329 32.638 69.4769 32.5 69.8009 32.224C70.1369 31.936 70.3049 31.534 70.3049 31.018C70.3049 30.502 70.1369 30.1 69.8009 29.812C69.4769 29.524 69.0329 29.38 68.4689 29.38H66.1829ZM66.1829 38.056H68.7389C69.3029 38.056 69.7529 37.906 70.0889 37.606C70.4369 37.294 70.6109 36.868 70.6109 36.328C70.6109 35.788 70.4369 35.362 70.0889 35.05C69.7409 34.738 69.2849 34.582 68.7209 34.582H66.1829V38.056ZM79.564 40.144C78.112 40.144 76.93 39.676 76.018 38.74C75.106 37.792 74.65 36.544 74.65 34.996C74.65 33.448 75.106 32.212 76.018 31.288C76.942 30.352 78.13 29.884 79.582 29.884C81.046 29.884 82.246 30.34 83.182 31.252C84.118 32.152 84.586 33.358 84.586 34.87C84.586 35.218 84.562 35.542 84.514 35.842H77.242C77.302 36.49 77.542 37.012 77.962 37.408C78.382 37.804 78.916 38.002 79.564 38.002C80.44 38.002 81.088 37.642 81.508 36.922H84.244C83.956 37.87 83.398 38.644 82.57 39.244C81.742 39.844 80.74 40.144 79.564 40.144ZM81.958 34.204C81.922 33.544 81.676 33.016 81.22 32.62C80.776 32.224 80.236 32.026 79.6 32.026C78.964 32.026 78.43 32.224 77.998 32.62C77.578 33.016 77.326 33.544 77.242 34.204H81.958ZM92.9384 37.174C93.4664 36.646 93.7304 35.926 93.7304 35.014C93.7304 34.102 93.4664 33.388 92.9384 32.872C92.4104 32.344 91.7924 32.08 91.0844 32.08C90.3764 32.08 89.7584 32.338 89.2304 32.854C88.7144 33.37 88.4564 34.084 88.4564 34.996C88.4564 35.908 88.7204 36.628 89.2484 37.156C89.7764 37.684 90.3884 37.948 91.0844 37.948C91.7924 37.948 92.4104 37.69 92.9384 37.174ZM87.2144 38.704C86.3264 37.732 85.8824 36.496 85.8824 34.996C85.8824 33.496 86.3264 32.272 87.2144 31.324C88.1024 30.364 89.2304 29.884 90.5984 29.884C91.9664 29.884 93.0104 30.448 93.7304 31.576V30.028H96.2504V40H93.7304V38.326C92.9744 39.538 91.9244 40.144 90.5804 40.144C89.2364 40.144 88.1144 39.664 87.2144 38.704ZM102.812 37.876H104.018V40H102.416C101.396 40 100.61 39.766 100.058 39.298C99.5058 38.83 99.2298 38.056 99.2298 36.976V32.098H98.1678V30.028H99.2298V27.562H101.768V30.028H104V32.098H101.768V36.976C101.768 37.3 101.846 37.534 102.002 37.678C102.158 37.81 102.428 37.876 102.812 37.876ZM112.993 37.156C113.521 36.628 113.785 35.908 113.785 34.996C113.785 34.084 113.521 33.37 112.993 32.854C112.477 32.338 111.865 32.08 111.157 32.08C110.449 32.08 109.831 32.344 109.303 32.872C108.787 33.388 108.529 34.102 108.529 35.014C108.529 35.926 108.787 36.646 109.303 37.174C109.831 37.69 110.449 37.948 111.157 37.948C111.865 37.948 112.477 37.684 112.993 37.156ZM108.529 31.576C109.237 30.448 110.275 29.884 111.643 29.884C113.011 29.884 114.139 30.364 115.027 31.324C115.915 32.272 116.359 33.502 116.359 35.014C116.359 36.514 115.915 37.744 115.027 38.704C114.139 39.664 113.017 40.144 111.661 40.144C110.317 40.144 109.273 39.538 108.529 38.326V40H105.991V26.68H108.529V31.576ZM121.156 27.49C121.156 27.922 121.006 28.288 120.706 28.588C120.406 28.888 120.04 29.038 119.608 29.038C119.188 29.038 118.828 28.888 118.528 28.588C118.228 28.288 118.078 27.922 118.078 27.49C118.078 27.058 118.228 26.692 118.528 26.392C118.828 26.092 119.188 25.942 119.608 25.942C120.04 25.942 120.406 26.092 120.706 26.392C121.006 26.692 121.156 27.058 121.156 27.49ZM118.348 40V30.028H120.886V40H118.348ZM126.124 30.028V31.522C126.76 30.43 127.792 29.884 129.22 29.884C130.36 29.884 131.29 30.262 132.01 31.018C132.73 31.762 133.09 32.8 133.09 34.132V40H130.57V34.492C130.57 33.712 130.372 33.118 129.976 32.71C129.58 32.29 129.04 32.08 128.356 32.08C127.672 32.08 127.126 32.29 126.718 32.71C126.322 33.118 126.124 33.712 126.124 34.492V40H123.586V30.028H126.124ZM142.052 37.174C142.58 36.646 142.844 35.926 142.844 35.014C142.844 34.102 142.58 33.388 142.052 32.872C141.524 32.344 140.906 32.08 140.198 32.08C139.49 32.08 138.872 32.338 138.344 32.854C137.828 33.37 137.57 34.084 137.57 34.996C137.57 35.908 137.834 36.628 138.362 37.156C138.89 37.684 139.502 37.948 140.198 37.948C140.906 37.948 141.524 37.69 142.052 37.174ZM136.328 38.704C135.44 37.732 134.996 36.496 134.996 34.996C134.996 33.496 135.44 32.272 136.328 31.324C137.216 30.364 138.344 29.884 139.712 29.884C141.08 29.884 142.124 30.448 142.844 31.576V26.68H145.364V40H142.844V38.326C142.088 39.538 141.038 40.144 139.694 40.144C138.35 40.144 137.228 39.664 136.328 38.704Z" fill="#4375A5"/>
<rect x="0.5" y="0.5" width="169" height="68" stroke="#1B0748"/>
<path d="M29.1391 21.717V34.3861C29.1172 35.8079 29.7069 37.176 30.7705 38.171C31.8224 39.176 33.2493 39.7406 34.7371 39.7406C36.225 39.7406 37.6519 39.176 38.7037 38.171C40.8651 36.0673 40.8651 32.6983 38.7037 30.5946C37.0167 28.9566 34.4181 28.5405 32.264 29.5635L32.2261 29.6261V31.3094L32.3434 31.3621C33.8902 30.2007 36.1056 30.3429 37.4758 31.6915C38.2247 32.4075 38.6357 33.3841 38.614 34.396C38.6393 35.9124 37.697 37.2913 36.2333 37.8797C34.7696 38.4681 33.0784 38.1479 31.9605 37.0708C31.215 36.3647 30.8038 35.3985 30.8223 34.396V31.0722V31.0426V22.6459L49.8826 33.1541C50.9515 33.745 51.3173 35.051 50.7001 36.0727C50.5058 36.3982 50.2235 36.6679 49.8826 36.8534L28.3561 48.7121C27.666 49.0942 26.8151 49.0961 26.1232 48.7171C25.4312 48.3381 25.0032 47.6358 25 46.874V23.1335C25.0016 22.3708 25.4286 21.6667 26.1204 21.2858C26.8122 20.9049 27.6641 20.9047 28.3561 21.2855L29.1391 21.717ZM28.0629 46.9333L28.4492 47.5493L29.4046 47.0222L29.0321 46.4062L28.0629 46.9333ZM29.3564 46.2218L29.7289 46.8378L30.6981 46.3041L30.3256 45.7046L29.3564 46.2218ZM28.7941 45.2961L29.1666 45.9121L30.1393 45.3752L29.7634 44.7592L28.7941 45.2961ZM30.6429 45.5102L31.0154 46.1262L31.9847 45.5926L31.6121 44.9733L30.6429 45.5102ZM30.0876 44.5846L30.4601 45.2006L31.4293 44.667L31.0568 44.0575L30.0876 44.5846ZM29.5288 43.659L29.9013 44.275L30.8637 43.7281L30.4911 43.1121L29.5288 43.659ZM31.3776 43.8731L31.7536 44.4891L32.7193 43.9554L32.3468 43.3361L31.3776 43.8731ZM32.671 43.1583L33.0436 43.7776L34.0128 43.2439L33.6403 42.6246L32.671 43.1583ZM30.8188 42.9474L31.2086 43.5634L32.1778 43.0298L31.788 42.4105L30.8188 42.9474ZM33.9679 42.4467L34.3336 43.0693L35.3028 42.5357L34.9303 41.9197L33.9679 42.4467ZM35.2545 41.7517L35.627 42.3677L36.5928 41.834L36.2203 41.218L35.2545 41.7517ZM36.5445 41.0402L36.917 41.6562L37.8863 41.0929L37.5137 40.4769L36.5445 41.0402ZM39.1418 39.6006L39.4867 40.2166L40.4559 39.683L40.0834 39.067L39.1418 39.6006ZM41.7252 38.1743L42.0839 38.787L43.0497 38.2501L42.6772 37.6341L41.7252 38.1743ZM43.0014 37.4694L43.3739 38.0854L44.3432 37.5517L43.9707 36.9291L43.0014 37.4694ZM44.2914 36.7578L44.6605 37.3672L45.6297 36.8336L45.2607 36.2176L44.2914 36.7578ZM43.7327 35.8223L44.1052 36.4383L45.0744 35.9047L44.7019 35.2887L43.7327 35.8223ZM45.5849 36.0364L45.9574 36.6524L46.9266 36.1188L46.5507 35.4929L45.5849 36.0364ZM45.0261 35.1108L45.3986 35.7268L46.3644 35.1931L45.9919 34.5771L45.0261 35.1108ZM43.1739 34.8967L43.5464 35.516L44.5156 34.9823L44.1431 34.3663L43.1739 34.8967ZM41.1492 37.2487L41.5217 37.8647L42.4909 37.331L42.1184 36.7117L41.1492 37.2487ZM33.4023 41.531L33.7748 42.1503L34.744 41.6166L34.3715 40.9973L33.4023 41.531ZM28.97 42.7399L29.3426 43.3559L30.3118 42.8223L29.9393 42.2063L28.97 42.7399ZM28.4113 41.8077L28.7941 42.427L29.7634 41.89L29.3805 41.274L28.4113 41.8077ZM31.9398 44.7954L32.3123 45.4147L33.2781 44.8778L32.9056 44.2618L31.9398 44.7954ZM33.2298 44.0839L33.6023 44.7164L34.5716 44.1827L34.199 43.5667L33.2298 44.0839ZM34.5198 43.3724L34.8923 43.9884L35.8616 43.4547L35.489 42.8387L34.5198 43.3724ZM35.8133 42.6609L36.1858 43.2768L37.155 42.7399L36.7825 42.1239L35.8133 42.6609ZM37.1033 41.9493L37.4758 42.5653L38.4519 42.0317L38.0725 41.4223L37.1033 41.9493ZM38.3933 41.2378L38.7692 41.8538L39.735 41.3202L39.3625 40.7042L38.3933 41.2378ZM39.6867 40.523L40.0593 41.1423L41.0285 40.6086L40.656 39.9893L39.6867 40.523ZM40.9767 39.8115L41.3493 40.434L42.3185 39.8971L41.946 39.2811L40.9767 39.8115ZM42.2702 39.1164L42.6427 39.7324L43.6257 39.1823L43.2498 38.5663L42.2702 39.1164ZM43.5602 38.4049L43.9327 39.0209L44.9019 38.4576L44.5294 37.8416L43.5602 38.4049ZM44.8502 37.6934L45.2227 38.3094L46.1919 37.7757L45.8194 37.14L44.8502 37.6934ZM46.1437 36.9818L46.5162 37.5978L47.4854 37.0642L47.1129 36.4482L46.1437 36.9818ZM47.4199 36.2538L47.7924 36.8698L48.7616 36.3362L48.3891 35.7169L47.4199 36.2538ZM34.713 36.5306C35.619 36.5319 36.4365 36.0115 36.7839 35.2123C37.1313 34.4132 36.94 33.4928 36.2993 32.881C35.6586 32.2691 34.695 32.0864 33.8582 32.4182C33.0214 32.7499 32.4765 33.5307 32.4779 34.396C32.4788 34.9641 32.7165 35.5085 33.1384 35.909C33.5604 36.3095 34.1319 36.5332 34.7268 36.5306H34.713Z" fill="url(#paint0_linear_4137_53)"/>
<defs>
<linearGradient id="paint0_linear_4137_53" x1="38.0001" y1="20.9989" x2="38.0001" y2="49.0119" gradientUnits="userSpaceOnUse">
<stop stop-color="#47B5F5"/>
<stop offset="0.27" stop-color="#578DF7"/>
<stop offset="1" stop-color="#8021FC"/>
</linearGradient>
</defs>
</svg>
