<svg width="51" height="52" viewBox="0 0 51 52" fill="none" xmlns="http://www.w3.org/2000/svg">
<rect x="0.5" y="0.5" width="50" height="51" rx="12.5" stroke="white" stroke-opacity="0.31"/>
<g clip-path="url(#clip0_4130_32)">
<path d="M25.4997 20.458C22.1647 20.458 19.458 23.1647 19.458 26.4997C19.458 29.8347 22.1647 32.5413 25.4997 32.5413C28.8347 32.5413 31.5413 29.8347 31.5413 26.4997C31.5413 23.1647 28.8347 20.458 25.4997 20.458ZM13.4163 27.708H15.833C16.4976 27.708 17.0413 27.1643 17.0413 26.4997C17.0413 25.8351 16.4976 25.2913 15.833 25.2913H13.4163C12.7518 25.2913 12.208 25.8351 12.208 26.4997C12.208 27.1643 12.7518 27.708 13.4163 27.708ZM35.1663 27.708H37.583C38.2476 27.708 38.7913 27.1643 38.7913 26.4997C38.7913 25.8351 38.2476 25.2913 37.583 25.2913H35.1663C34.5018 25.2913 33.958 25.8351 33.958 26.4997C33.958 27.1643 34.5018 27.708 35.1663 27.708ZM24.2913 14.4163V16.833C24.2913 17.4976 24.8351 18.0413 25.4997 18.0413C26.1643 18.0413 26.708 17.4976 26.708 16.833V14.4163C26.708 13.7518 26.1643 13.208 25.4997 13.208C24.8351 13.208 24.2913 13.7518 24.2913 14.4163ZM24.2913 36.1663V38.583C24.2913 39.2476 24.8351 39.7913 25.4997 39.7913C26.1643 39.7913 26.708 39.2476 26.708 38.583V36.1663C26.708 35.5018 26.1643 34.958 25.4997 34.958C24.8351 34.958 24.2913 35.5018 24.2913 36.1663ZM18.2376 17.5338C17.7663 17.0626 16.993 17.0626 16.5338 17.5338C16.0626 18.0051 16.0626 18.7784 16.5338 19.2376L17.8147 20.5184C18.2859 20.9897 19.0593 20.9897 19.5184 20.5184C19.9776 20.0472 19.9897 19.2738 19.5184 18.8147L18.2376 17.5338ZM33.1847 32.4809C32.7134 32.0097 31.9401 32.0097 31.4809 32.4809C31.0097 32.9522 31.0097 33.7255 31.4809 34.1847L32.7618 35.4655C33.233 35.9368 34.0063 35.9368 34.4655 35.4655C34.9368 34.9943 34.9368 34.2209 34.4655 33.7618L33.1847 32.4809ZM34.4655 19.2376C34.9368 18.7663 34.9368 17.993 34.4655 17.5338C33.9943 17.0626 33.2209 17.0626 32.7618 17.5338L31.4809 18.8147C31.0097 19.2859 31.0097 20.0593 31.4809 20.5184C31.9522 20.9776 32.7255 20.9897 33.1847 20.5184L34.4655 19.2376ZM19.5184 34.1847C19.9897 33.7134 19.9897 32.9401 19.5184 32.4809C19.0472 32.0097 18.2738 32.0097 17.8147 32.4809L16.5338 33.7618C16.0626 34.233 16.0626 35.0063 16.5338 35.4655C17.0051 35.9247 17.7784 35.9368 18.2376 35.4655L19.5184 34.1847Z" fill="#60ABEE"/>
</g>
<defs>
<clipPath id="clip0_4130_32">
<rect width="29" height="29" fill="white" transform="translate(11 12)"/>
</clipPath>
</defs>
</svg>
