<svg width="602" height="602" viewBox="0 0 602 602" fill="none" xmlns="http://www.w3.org/2000/svg">
<path d="M235.428 504.589C192.431 490.745 154.92 463.645 128.272 427.172L266.119 326.455C271.498 333.817 279.07 339.288 287.75 342.082L235.428 504.589Z" fill="#C2EAFC"/>
<path d="M365.605 504.885C322.545 518.533 276.27 518.198 233.412 503.929L287.37 341.864C296.003 344.738 305.324 344.806 313.998 342.057L365.605 504.885Z" fill="#B3E5FC"/>
<path d="M473.005 428.101C446.16 464.429 408.503 491.327 365.432 504.938L313.946 342.019C322.612 339.28 330.189 333.868 335.59 326.559L473.005 428.101Z" fill="#81D4FA"/>
<path d="M514.864 303.27C514.381 348.438 499.611 392.294 472.671 428.552L335.523 326.649C340.943 319.354 343.915 310.53 344.012 301.442L514.864 303.27Z" fill="#4FC3F7"/>
<path d="M477.633 180.377C503.102 217.683 516.108 262.095 514.785 307.246L343.996 302.242C344.262 293.158 341.646 284.222 336.521 276.716L477.633 180.377Z" fill="#29B6F6"/>
<path d="M361.288 95.761C409.363 109.888 450.952 140.445 478.802 182.1L336.876 276.985C331.255 268.577 322.86 262.409 313.156 259.557L361.288 95.761Z" fill="#03A9F4"/>
<path d="M230.174 99.1452C272.798 84.1924 319.062 83.1174 362.335 96.0743L313.339 259.708C304.622 257.098 295.303 257.314 286.717 260.326L230.174 99.1452Z" fill="#039BE5"/>
<path d="M125.554 178.607C151.399 141.56 188.308 113.645 230.992 98.8644L286.902 260.32C278.314 263.294 270.887 268.91 265.688 276.364L125.554 178.607Z" fill="#0288D1"/>
<path d="M87.1266 305.156C86.2457 259.994 99.6848 215.712 125.518 178.657L265.68 276.372C260.482 283.828 257.778 292.737 257.956 301.824L87.1266 305.156Z" fill="#0277BD"/>
<path d="M128.051 426.868C101.467 390.348 87.127 346.35 87.086 301.179L257.948 301.024C257.956 310.112 260.841 318.965 266.19 326.313L128.051 426.868Z" fill="#0062B0"/>
<path d="M293.49 280.111V300.588C293.455 302.886 294.385 305.097 296.063 306.705C297.721 308.329 299.971 309.242 302.318 309.242C304.664 309.242 306.914 308.329 308.573 306.705C311.981 303.305 311.981 297.86 308.573 294.46C305.912 291.812 301.815 291.14 298.418 292.793L298.358 292.894V295.615L298.543 295.7C300.982 293.823 304.476 294.053 306.636 296.232C307.817 297.39 308.465 298.968 308.431 300.604C308.471 303.055 306.985 305.283 304.677 306.234C302.369 307.185 299.702 306.668 297.939 304.927C296.763 303.786 296.115 302.224 296.144 300.604V295.232V295.184V281.612L326.201 298.596C327.886 299.551 328.463 301.662 327.49 303.314C327.184 303.84 326.738 304.276 326.201 304.575L292.255 323.742C291.167 324.36 289.825 324.363 288.734 323.75C287.643 323.138 286.968 322.003 286.963 320.771V282.4C286.965 281.168 287.639 280.03 288.73 279.414C289.821 278.798 291.164 278.798 292.255 279.414L293.49 280.111ZM291.793 320.867L292.402 321.863L293.909 321.011L293.321 320.015L291.793 320.867ZM293.833 319.717L294.42 320.713L295.948 319.85L295.361 318.881L293.833 319.717ZM292.946 318.221L293.533 319.217L295.067 318.349L294.474 317.353L292.946 318.221ZM295.861 318.567L296.449 319.563L297.977 318.7L297.39 317.699L295.861 318.567ZM294.986 317.071L295.573 318.067L297.101 317.204L296.514 316.219L294.986 317.071ZM294.104 315.575L294.692 316.571L296.209 315.687L295.622 314.691L294.104 315.575ZM297.02 315.921L297.613 316.917L299.136 316.054L298.548 315.053L297.02 315.921ZM299.06 314.766L299.647 315.767L301.175 314.904L300.588 313.903L299.06 314.766ZM296.139 314.425L296.753 315.421L298.282 314.558L297.667 313.557L296.139 314.425ZM301.105 313.616L301.681 314.622L303.21 313.759L302.622 312.764L301.105 313.616ZM303.133 312.492L303.721 313.488L305.244 312.625L304.656 311.63L303.133 312.492ZM305.168 311.342L305.755 312.338L307.284 311.427L306.696 310.432L305.168 311.342ZM309.263 309.016L309.807 310.011L311.336 309.149L310.748 308.153L309.263 309.016ZM313.337 306.71L313.903 307.701L315.426 306.833L314.838 305.837L313.337 306.71ZM315.35 305.571L315.937 306.567L317.466 305.704L316.878 304.698L315.35 305.571ZM317.384 304.421L317.966 305.406L319.494 304.543L318.912 303.548L317.384 304.421ZM316.503 302.909L317.09 303.905L318.619 303.042L318.031 302.046L316.503 302.909ZM319.424 303.255L320.011 304.251L321.539 303.388L320.947 302.376L319.424 303.255ZM318.543 301.759L319.13 302.754L320.653 301.892L320.065 300.896L318.543 301.759ZM315.622 301.413L316.209 302.414L317.738 301.551L317.15 300.556L315.622 301.413ZM312.429 305.214L313.016 306.21L314.545 305.347L313.957 304.346L312.429 305.214ZM300.213 312.136L300.8 313.137L302.328 312.274L301.741 311.273L300.213 312.136ZM293.223 314.09L293.811 315.085L295.339 314.223L294.752 313.227L293.223 314.09ZM292.342 312.583L292.946 313.584L294.474 312.716L293.871 311.72L292.342 312.583ZM297.906 317.412L298.494 318.413L300.017 317.545L299.429 316.549L297.906 317.412ZM299.941 316.262L300.528 317.284L302.057 316.422L301.469 315.426L299.941 316.262ZM301.975 315.112L302.562 316.107L304.091 315.245L303.503 314.249L301.975 315.112ZM304.015 313.962L304.602 314.957L306.13 314.09L305.543 313.094L304.015 313.962ZM306.049 312.812L306.636 313.807L308.176 312.945L307.577 311.96L306.049 312.812ZM308.083 311.662L308.676 312.657L310.199 311.795L309.611 310.799L308.083 311.662ZM310.123 310.506L310.71 311.507L312.239 310.645L311.651 309.644L310.123 310.506ZM312.157 309.356L312.744 310.363L314.273 309.495L313.685 308.499L312.157 309.356ZM314.197 308.233L314.784 309.229L316.334 308.339L315.741 307.344L314.197 308.233ZM316.231 307.083L316.818 308.079L318.347 307.168L317.759 306.173L316.231 307.083ZM318.265 305.933L318.853 306.929L320.381 306.066L319.794 305.039L318.265 305.933ZM320.305 304.783L320.892 305.779L322.421 304.916L321.833 303.92L320.305 304.783ZM322.317 303.606L322.905 304.602L324.433 303.739L323.846 302.739L322.317 303.606ZM302.28 304.054C303.708 304.056 304.997 303.215 305.545 301.923C306.093 300.631 305.791 299.144 304.781 298.155C303.771 297.166 302.251 296.871 300.932 297.407C299.612 297.943 298.753 299.205 298.755 300.604C298.756 301.522 299.131 302.402 299.797 303.049C300.462 303.696 301.363 304.058 302.301 304.054H302.28Z" fill="url(#paint0_linear_4145_59)"/>
<defs>
<linearGradient id="paint0_linear_4145_59" x1="307.463" y1="278.95" x2="307.463" y2="324.227" gradientUnits="userSpaceOnUse">
<stop stop-color="#47B5F5"/>
<stop offset="0.27" stop-color="#578DF7"/>
<stop offset="1" stop-color="#8021FC"/>
</linearGradient>
</defs>
</svg>
