<svg width="1921" height="1410" viewBox="0 0 1921 1410" fill="none" xmlns="http://www.w3.org/2000/svg">
<rect y="1" width="1921" height="1409" fill="#1B0451"/>
<mask id="mask0_4011_635" style="mask-type:alpha" maskUnits="userSpaceOnUse" x="6" y="0" width="1915" height="1385">
<rect x="6" width="1915" height="1385" fill="#1D084C"/>
</mask>
<g mask="url(#mask0_4011_635)">
<ellipse opacity="0.686198" cx="42.2743" cy="570.5" rx="494.274" ry="493.5" fill="url(#paint0_radial_4011_635)"/>
<ellipse opacity="0.686198" cx="1789.27" cy="579.5" rx="494.274" ry="493.5" fill="url(#paint1_radial_4011_635)"/>
<g filter="url(#filter0_d_4011_635)">
<path fill-rule="evenodd" clip-rule="evenodd" d="M352.407 684.283L352.242 719.569C352.226 722.816 349.833 725.783 346.896 726.196C346.004 726.322 345.128 726.197 344.347 725.834L317.545 713.355C314.976 712.159 314.047 708.72 315.47 705.673C315.902 704.747 316.524 703.928 317.278 703.29L344.245 680.483C346.726 678.384 350.011 678.719 351.582 681.231C352.126 682.1 352.412 683.159 352.407 684.283Z" fill="url(#paint2_linear_4011_635)"/>
</g>
<path opacity="0.596977" fill-rule="evenodd" clip-rule="evenodd" d="M945.265 474.789L932.924 488.023C931.789 489.24 929.873 489.344 928.646 488.253C928.274 487.922 927.994 487.503 927.832 487.035L922.288 470.959C921.757 469.418 922.611 467.727 924.196 467.183C924.678 467.017 925.192 466.972 925.692 467.051L943.577 469.894C945.222 470.155 946.318 471.675 946.023 473.289C945.921 473.847 945.658 474.368 945.265 474.789Z" fill="url(#paint3_linear_4011_635)"/>
<g filter="url(#filter1_d_4011_635)">
<path fill-rule="evenodd" clip-rule="evenodd" d="M1510.88 505.535L1513.73 547.657C1513.99 551.533 1511.04 554.869 1507.14 555.108C1505.96 555.181 1504.77 554.956 1503.7 554.454L1466.7 537.23C1463.15 535.579 1461.61 531.391 1463.25 527.876C1463.75 526.808 1464.51 525.884 1465.47 525.188L1499.61 500.29C1502.76 497.999 1507.19 498.683 1509.51 501.819C1510.31 502.904 1510.79 504.193 1510.88 505.535Z" fill="url(#paint4_linear_4011_635)"/>
</g>
<path opacity="0.596977" fill-rule="evenodd" clip-rule="evenodd" d="M1686.13 742.337L1671.08 754.076C1669.69 755.156 1667.7 754.894 1666.62 753.49C1666.3 753.063 1666.08 752.561 1666 752.03L1663.1 733.77C1662.82 732.02 1664 730.379 1665.73 730.106C1666.26 730.022 1666.8 730.074 1667.3 730.257L1685.25 736.776C1686.9 737.376 1687.77 739.214 1687.18 740.881C1686.97 741.458 1686.61 741.963 1686.13 742.337Z" fill="url(#paint5_linear_4011_635)"/>
<path opacity="0.596977" fill-rule="evenodd" clip-rule="evenodd" d="M1785.59 375.789L1773.24 389.023C1772.11 390.24 1770.19 390.344 1768.97 389.253C1768.59 388.922 1768.31 388.503 1768.15 388.035L1762.61 371.959C1762.08 370.418 1762.93 368.727 1764.52 368.183C1765 368.017 1765.51 367.972 1766.01 368.051L1783.9 370.894C1785.54 371.155 1786.64 372.675 1786.34 374.289C1786.24 374.847 1785.98 375.368 1785.59 375.789Z" fill="url(#paint6_linear_4011_635)"/>
</g>
<defs>
<filter id="filter0_d_4011_635" x="294.804" y="658.104" width="77.6025" height="87.1396" filterUnits="userSpaceOnUse" color-interpolation-filters="sRGB">
<feFlood flood-opacity="0" result="BackgroundImageFix"/>
<feColorMatrix in="SourceAlpha" type="matrix" values="0 0 0 0 0 0 0 0 0 0 0 0 0 0 0 0 0 0 127 0" result="hardAlpha"/>
<feOffset dy="-1"/>
<feGaussianBlur stdDeviation="10"/>
<feColorMatrix type="matrix" values="0 0 0 0 0 0 0 0 0 0 0 0 0 0 0 0 0 0 0.0808424 0"/>
<feBlend mode="normal" in2="BackgroundImageFix" result="effect1_dropShadow_4011_635"/>
<feBlend mode="normal" in="SourceGraphic" in2="effect1_dropShadow_4011_635" result="shape"/>
</filter>
<filter id="filter1_d_4011_635" x="1442.6" y="477.935" width="91.1484" height="96.1865" filterUnits="userSpaceOnUse" color-interpolation-filters="sRGB">
<feFlood flood-opacity="0" result="BackgroundImageFix"/>
<feColorMatrix in="SourceAlpha" type="matrix" values="0 0 0 0 0 0 0 0 0 0 0 0 0 0 0 0 0 0 127 0" result="hardAlpha"/>
<feOffset dy="-1"/>
<feGaussianBlur stdDeviation="10"/>
<feColorMatrix type="matrix" values="0 0 0 0 0 0 0 0 0 0 0 0 0 0 0 0 0 0 0.0808424 0"/>
<feBlend mode="normal" in2="BackgroundImageFix" result="effect1_dropShadow_4011_635"/>
<feBlend mode="normal" in="SourceGraphic" in2="effect1_dropShadow_4011_635" result="shape"/>
</filter>
<radialGradient id="paint0_radial_4011_635" cx="0" cy="0" r="1" gradientTransform="matrix(32.5717 -385.038 385.642 32.5206 42.2743 570.5)" gradientUnits="userSpaceOnUse">
<stop stop-color="#6B2E9E"/>
<stop offset="1" stop-color="#083680" stop-opacity="0.01"/>
</radialGradient>
<radialGradient id="paint1_radial_4011_635" cx="0" cy="0" r="1" gradientTransform="matrix(32.5717 -385.038 385.642 32.5206 1789.27 579.5)" gradientUnits="userSpaceOnUse">
<stop stop-color="#6B2E9E"/>
<stop offset="1" stop-color="#083680" stop-opacity="0.01"/>
</radialGradient>
<linearGradient id="paint2_linear_4011_635" x1="375.015" y1="631.462" x2="297.215" y2="663.383" gradientUnits="userSpaceOnUse">
<stop stop-color="#5F9FEF"/>
<stop offset="1" stop-color="#5F9FEF" stop-opacity="0.108299"/>
</linearGradient>
<linearGradient id="paint3_linear_4011_635" x1="930.214" y1="455.672" x2="923.626" y2="473.749" gradientUnits="userSpaceOnUse">
<stop stop-color="#B949BE" stop-opacity="0.539289"/>
<stop offset="1" stop-color="#B949BE"/>
</linearGradient>
<linearGradient id="paint4_linear_4011_635" x1="1536.58" y1="444.419" x2="1443.75" y2="492.479" gradientUnits="userSpaceOnUse">
<stop stop-color="#5F9FEF"/>
<stop offset="1" stop-color="#5F9FEF" stop-opacity="0.108299"/>
</linearGradient>
<linearGradient id="paint5_linear_4011_635" x1="1673.96" y1="718.976" x2="1663.32" y2="736.606" gradientUnits="userSpaceOnUse">
<stop stop-color="#B949BE" stop-opacity="0.539289"/>
<stop offset="1" stop-color="#B949BE"/>
</linearGradient>
<linearGradient id="paint6_linear_4011_635" x1="1770.53" y1="356.672" x2="1763.95" y2="374.749" gradientUnits="userSpaceOnUse">
<stop stop-color="#B949BE" stop-opacity="0.539289"/>
<stop offset="1" stop-color="#B949BE"/>
</linearGradient>
</defs>
</svg>
