<svg width="51" height="52" viewBox="0 0 51 52" fill="none" xmlns="http://www.w3.org/2000/svg">
<rect x="0.5" y="0.5" width="50" height="51" rx="12.5" stroke="white" stroke-opacity="0.31"/>
<g clip-path="url(#clip0_4130_31)">
<path d="M38.25 16.875V19.625H34.125V23.75H31.375V19.625H27.25V16.875H31.375V12.75H34.125V16.875H38.25ZM34.125 36.125H14.875V16.875H23.125V14.125H14.875C13.3625 14.125 12.125 15.3625 12.125 16.875V36.125C12.125 37.6375 13.3625 38.875 14.875 38.875H34.125C35.6375 38.875 36.875 37.6375 36.875 36.125V27.875H34.125V36.125ZM28.625 27.875V33.375H31.375V27.875H28.625ZM23.125 33.375H25.875V22.375H23.125V33.375ZM20.375 33.375V25.125H17.625V33.375H20.375Z" fill="#60ABEE"/>
</g>
<defs>
<clipPath id="clip0_4130_31">
<rect width="33" height="33" fill="white" transform="translate(8 10)"/>
</clipPath>
</defs>
</svg>
