<svg width="170" height="69" viewBox="0 0 170 69" fill="none" xmlns="http://www.w3.org/2000/svg">
<path d="M53.1409 30.47V33.62H57.3709V35.618H53.1409V38.948H57.9109V41H50.6209V28.418H57.9109V30.47H53.1409ZM62.721 27.68V41H60.201V27.68H62.721ZM74.4808 35.798C74.4808 36.158 74.4568 36.482 74.4088 36.77H67.1188C67.1788 37.49 67.4308 38.054 67.8748 38.462C68.3188 38.87 68.8648 39.074 69.5128 39.074C70.4488 39.074 71.1148 38.672 71.5108 37.868H74.2288C73.9408 38.828 73.3888 39.62 72.5728 40.244C71.7568 40.856 70.7548 41.162 69.5668 41.162C68.6068 41.162 67.7428 40.952 66.9748 40.532C66.2188 40.1 65.6248 39.494 65.1928 38.714C64.7728 37.934 64.5627 37.034 64.5627 36.014C64.5627 34.982 64.7728 34.076 65.1928 33.296C65.6128 32.516 66.2008 31.916 66.9568 31.496C67.7128 31.076 68.5828 30.866 69.5668 30.866C70.5148 30.866 71.3608 31.07 72.1048 31.478C72.8608 31.886 73.4428 32.468 73.8508 33.224C74.2708 33.968 74.4808 34.826 74.4808 35.798ZM71.8708 35.078C71.8588 34.43 71.6248 33.914 71.1688 33.53C70.7128 33.134 70.1548 32.936 69.4948 32.936C68.8708 32.936 68.3428 33.128 67.9108 33.512C67.4908 33.884 67.2328 34.406 67.1368 35.078H71.8708ZM80.4781 38.678L82.9981 31.028H85.6801L81.9901 41H78.9301L75.2581 31.028H77.9581L80.4781 38.678ZM96.3655 35.798C96.3655 36.158 96.3415 36.482 96.2935 36.77H89.0035C89.0635 37.49 89.3155 38.054 89.7595 38.462C90.2035 38.87 90.7495 39.074 91.3975 39.074C92.3335 39.074 92.9995 38.672 93.3955 37.868H96.1135C95.8255 38.828 95.2735 39.62 94.4575 40.244C93.6415 40.856 92.6395 41.162 91.4515 41.162C90.4915 41.162 89.6275 40.952 88.8595 40.532C88.1035 40.1 87.5095 39.494 87.0775 38.714C86.6575 37.934 86.4475 37.034 86.4475 36.014C86.4475 34.982 86.6575 34.076 87.0775 33.296C87.4975 32.516 88.0855 31.916 88.8415 31.496C89.5975 31.076 90.4675 30.866 91.4515 30.866C92.3995 30.866 93.2455 31.07 93.9895 31.478C94.7455 31.886 95.3275 32.468 95.7355 33.224C96.1555 33.968 96.3655 34.826 96.3655 35.798ZM93.7555 35.078C93.7435 34.43 93.5095 33.914 93.0535 33.53C92.5975 33.134 92.0395 32.936 91.3795 32.936C90.7555 32.936 90.2275 33.128 89.7955 33.512C89.3755 33.884 89.1175 34.406 89.0215 35.078H93.7555ZM103.731 30.884C104.919 30.884 105.879 31.262 106.611 32.018C107.343 32.762 107.709 33.806 107.709 35.15V41H105.189V35.492C105.189 34.7 104.991 34.094 104.595 33.674C104.199 33.242 103.659 33.026 102.975 33.026C102.279 33.026 101.727 33.242 101.319 33.674C100.923 34.094 100.725 34.7 100.725 35.492V41H98.2049V31.028H100.725V32.27C101.061 31.838 101.487 31.502 102.003 31.262C102.531 31.01 103.107 30.884 103.731 30.884ZM116.914 39.002H121.054V41H114.394V28.436H116.914V39.002ZM122.008 35.978C122.008 34.97 122.206 34.076 122.602 33.296C123.01 32.516 123.556 31.916 124.24 31.496C124.936 31.076 125.71 30.866 126.562 30.866C127.306 30.866 127.954 31.016 128.506 31.316C129.07 31.616 129.52 31.994 129.856 32.45V31.028H132.394V41H129.856V39.542C129.532 40.01 129.082 40.4 128.506 40.712C127.942 41.012 127.288 41.162 126.544 41.162C125.704 41.162 124.936 40.946 124.24 40.514C123.556 40.082 123.01 39.476 122.602 38.696C122.206 37.904 122.008 36.998 122.008 35.978ZM129.856 36.014C129.856 35.402 129.736 34.88 129.496 34.448C129.256 34.004 128.932 33.668 128.524 33.44C128.116 33.2 127.678 33.08 127.21 33.08C126.742 33.08 126.31 33.194 125.914 33.422C125.518 33.65 125.194 33.986 124.942 34.43C124.702 34.862 124.582 35.378 124.582 35.978C124.582 36.578 124.702 37.106 124.942 37.562C125.194 38.006 125.518 38.348 125.914 38.588C126.322 38.828 126.754 38.948 127.21 38.948C127.678 38.948 128.116 38.834 128.524 38.606C128.932 38.366 129.256 38.03 129.496 37.598C129.736 37.154 129.856 36.626 129.856 36.014ZM137.375 32.486C137.699 32.006 138.143 31.616 138.707 31.316C139.283 31.016 139.937 30.866 140.669 30.866C141.521 30.866 142.289 31.076 142.973 31.496C143.669 31.916 144.215 32.516 144.611 33.296C145.019 34.064 145.223 34.958 145.223 35.978C145.223 36.998 145.019 37.904 144.611 38.696C144.215 39.476 143.669 40.082 142.973 40.514C142.289 40.946 141.521 41.162 140.669 41.162C139.925 41.162 139.271 41.018 138.707 40.73C138.155 40.43 137.711 40.046 137.375 39.578V41H134.855V27.68H137.375V32.486ZM142.649 35.978C142.649 35.378 142.523 34.862 142.271 34.43C142.031 33.986 141.707 33.65 141.299 33.422C140.903 33.194 140.471 33.08 140.003 33.08C139.547 33.08 139.115 33.2 138.707 33.44C138.311 33.668 137.987 34.004 137.735 34.448C137.495 34.892 137.375 35.414 137.375 36.014C137.375 36.614 137.495 37.136 137.735 37.58C137.987 38.024 138.311 38.366 138.707 38.606C139.115 38.834 139.547 38.948 140.003 38.948C140.471 38.948 140.903 38.828 141.299 38.588C141.707 38.348 142.031 38.006 142.271 37.562C142.523 37.118 142.649 36.59 142.649 35.978ZM150.871 41.162C150.055 41.162 149.323 41.018 148.675 40.73C148.027 40.43 147.511 40.028 147.127 39.524C146.755 39.02 146.551 38.462 146.515 37.85H149.053C149.101 38.234 149.287 38.552 149.611 38.804C149.947 39.056 150.361 39.182 150.853 39.182C151.333 39.182 151.705 39.086 151.969 38.894C152.245 38.702 152.383 38.456 152.383 38.156C152.383 37.832 152.215 37.592 151.879 37.436C151.555 37.268 151.033 37.088 150.312 36.896C149.569 36.716 148.957 36.53 148.477 36.338C148.009 36.146 147.601 35.852 147.253 35.456C146.917 35.06 146.749 34.526 146.749 33.854C146.749 33.302 146.905 32.798 147.217 32.342C147.541 31.886 147.997 31.526 148.585 31.262C149.185 30.998 149.887 30.866 150.691 30.866C151.879 30.866 152.827 31.166 153.535 31.766C154.243 32.354 154.633 33.152 154.705 34.16H152.293C152.257 33.764 152.089 33.452 151.789 33.224C151.501 32.984 151.111 32.864 150.619 32.864C150.163 32.864 149.809 32.948 149.557 33.116C149.317 33.284 149.197 33.518 149.197 33.818C149.197 34.154 149.365 34.412 149.701 34.592C150.037 34.76 150.559 34.934 151.267 35.114C151.987 35.294 152.581 35.48 153.049 35.672C153.517 35.864 153.919 36.164 154.255 36.572C154.603 36.968 154.783 37.496 154.795 38.156C154.795 38.732 154.633 39.248 154.309 39.704C153.997 40.16 153.541 40.52 152.941 40.784C152.353 41.036 151.663 41.162 150.871 41.162Z" fill="#4375A5"/>
<rect x="0.5" y="0.5" width="169" height="68" stroke="#1B0748"/>
<path d="M35.8613 23H40.7928V47H35.8613V23Z" fill="#C2C2C2"/>
<path d="M26 23H30.9315V47H26V23Z" fill="#C2C2C2"/>
</svg>
