<svg width="43" height="45" viewBox="0 0 43 45" fill="none" xmlns="http://www.w3.org/2000/svg">
<path d="M6.73684 1.13371V21.1659C6.70125 23.414 7.6611 25.5772 9.39228 27.1506C11.1043 28.7396 13.4267 29.6324 15.8484 29.6324C18.2701 29.6324 20.5925 28.7396 22.3046 27.1506C25.8224 23.8242 25.8224 18.4972 22.3046 15.1708C19.5588 12.5809 15.3292 11.923 11.8232 13.5405L11.7614 13.6395V16.3011L11.9523 16.3844C14.4699 14.5481 18.0758 14.7729 20.306 16.9053C21.5249 18.0374 22.1939 19.5816 22.1586 21.1815C22.1997 23.5793 20.6659 25.7596 18.2836 26.69C15.9014 27.6203 13.1487 27.1141 11.3291 25.4109C10.1157 24.2945 9.44651 22.7667 9.47649 21.1815V15.9261V15.8792V2.60253L40.4996 19.2179C42.2393 20.1523 42.8347 22.2173 41.8302 23.8327C41.5141 24.3475 41.0545 24.7738 40.4996 25.0671L5.46246 43.818C4.3393 44.4221 2.95427 44.4251 1.82808 43.8259C0.701879 43.2267 0.00521482 42.1161 0 40.9116V3.3734C0.00267981 2.16749 0.697575 1.05423 1.8236 0.451891C2.94963 -0.15045 4.33624 -0.150642 5.46246 0.451385L6.73684 1.13371ZM4.98526 41.0054L5.61404 41.9794L7.16912 41.146L6.56281 40.172L4.98526 41.0054ZM7.09053 39.8803L7.69684 40.8543L9.27439 40.0105L8.66807 39.0626L7.09053 39.8803ZM6.17544 38.4167L6.78175 39.3907L8.36491 38.5417L7.75298 37.5677L6.17544 38.4167ZM9.18456 38.7553L9.79088 39.7293L11.3684 38.8855L10.7621 37.9063L9.18456 38.7553ZM8.2807 37.2916L8.88702 38.2657L10.4646 37.4219L9.85825 36.4583L8.2807 37.2916ZM7.37123 35.828L7.97754 36.802L9.54386 35.9374L8.93754 34.9634L7.37123 35.828ZM10.3804 36.1666L10.9923 37.1406L12.5642 36.2968L11.9579 35.3176L10.3804 36.1666ZM12.4856 35.0363L13.0919 36.0155L14.6695 35.1718L14.0632 34.1925L12.4856 35.0363ZM9.47088 34.703L10.1053 35.677L11.6828 34.8332L11.0484 33.854L9.47088 34.703ZM14.5965 33.9113L15.1916 34.8957L16.7691 34.0519L16.1628 33.0779L14.5965 33.9113ZM16.6905 32.8123L17.2968 33.7863L18.8688 32.9425L18.2625 31.9685L16.6905 32.8123ZM18.7902 31.6872L19.3965 32.6612L20.974 31.7706L20.3677 30.7966L18.7902 31.6872ZM23.0175 29.4111L23.5789 30.3851L25.1565 29.5413L24.5502 28.5673L23.0175 29.4111ZM27.2225 27.1558L27.8063 28.1246L29.3782 27.2756L28.7719 26.3016L27.2225 27.1558ZM29.2996 26.0411L29.906 27.0151L31.4835 26.1713L30.8772 25.1869L29.2996 26.0411ZM31.3993 24.9161L32 25.8797L33.5775 25.0359L32.9768 24.0619L31.3993 24.9161ZM30.4898 23.4368L31.0961 24.4108L32.6737 23.5671L32.0674 22.593L30.4898 23.4368ZM33.5046 23.7754L34.1109 24.7494L35.6884 23.9056L35.0765 22.916L33.5046 23.7754ZM32.5951 22.3118L33.2014 23.2858L34.7733 22.442L34.167 21.468L32.5951 22.3118ZM29.5804 21.9732L30.1867 22.9524L31.7642 22.1087L31.1579 21.1346L29.5804 21.9732ZM26.2849 25.6922L26.8912 26.6662L28.4688 25.8224L27.8625 24.8432L26.2849 25.6922ZM13.6758 32.4633L14.2821 33.4425L15.8596 32.5987L15.2533 31.6195L13.6758 32.4633ZM6.46175 34.3748L7.06807 35.3489L8.64561 34.5051L8.0393 33.5311L6.46175 34.3748ZM5.55228 32.9008L6.17544 33.88L7.75298 33.031L7.12982 32.057L5.55228 32.9008ZM11.2954 37.625L11.9018 38.6042L13.4737 37.7552L12.8674 36.7812L11.2954 37.625ZM13.3951 36.4999L14.0014 37.5L15.5789 36.6562L14.9726 35.6822L13.3951 36.4999ZM15.4947 35.3749L16.1011 36.3489L17.6786 35.5051L17.0723 34.5311L15.4947 35.3749ZM17.6 34.2498L18.2063 35.2238L19.7839 34.3748L19.1775 33.4008L17.6 34.2498ZM19.6996 33.1248L20.306 34.0988L21.8947 33.255L21.2772 32.2914L19.6996 33.1248ZM21.7993 31.9997L22.4112 32.9737L23.9832 32.13L23.3768 31.1559L21.7993 31.9997ZM23.9046 30.8695L24.5109 31.8487L26.0884 31.0049L25.4821 30.0257L23.9046 30.8695ZM26.0042 29.7444L26.6105 30.7288L28.1881 29.8798L27.5818 28.9058L26.0042 29.7444ZM28.1095 28.6454L28.7158 29.6194L30.3158 28.7496L29.7039 27.7756L28.1095 28.6454ZM30.2091 27.5204L30.8154 28.4944L32.393 27.6037L31.7867 26.6297L30.2091 27.5204ZM32.3088 26.3953L32.9151 27.3693L34.4926 26.5255L33.8863 25.5203L32.3088 26.3953ZM34.414 25.2703L35.0204 26.2443L36.5979 25.4005L35.9916 24.4265L34.414 25.2703ZM36.4912 24.1192L37.0975 25.0932L38.6751 24.2494L38.0688 23.2702L36.4912 24.1192ZM15.8091 24.5567C17.2838 24.5588 18.6144 23.736 19.1798 22.4723C19.7452 21.2087 19.4338 19.7535 18.3911 18.786C17.3483 17.8186 15.7798 17.5297 14.4178 18.0543C13.0558 18.5788 12.169 19.8133 12.1712 21.1815C12.1727 22.0799 12.5595 22.9407 13.2463 23.574C13.9331 24.2072 14.8633 24.5608 15.8316 24.5567H15.8091Z" fill="url(#paint0_linear_4011_1003)"/>
<defs>
<linearGradient id="paint0_linear_4011_1003" x1="21.1593" y1="-0.00176087" x2="21.1593" y2="44.292" gradientUnits="userSpaceOnUse">
<stop stop-color="#47B5F5"/>
<stop offset="0.27" stop-color="#578DF7"/>
<stop offset="1" stop-color="#8021FC"/>
</linearGradient>
</defs>
</svg>
