<svg width="160" height="45" viewBox="0 0 160 45" fill="none" xmlns="http://www.w3.org/2000/svg">
<g clip-path="url(#clip0_4011_1002)">
<path d="M6.73684 1.1356V21.1678C6.70125 23.4159 7.6611 25.5791 9.39228 27.1524C11.1043 28.7415 13.4267 29.6343 15.8484 29.6343C18.2701 29.6343 20.5925 28.7415 22.3046 27.1524C25.8224 23.8261 25.8224 18.4991 22.3046 15.1727C19.5588 12.5828 15.3292 11.9249 11.8232 13.5424L11.7614 13.6414V16.303L11.9523 16.3863C14.4699 14.55 18.0758 14.7748 20.306 16.9072C21.5249 18.0393 22.1939 19.5835 22.1586 21.1834C22.1997 23.5812 20.6659 25.7615 18.2836 26.6919C15.9014 27.6222 13.1487 27.116 11.3291 25.4128C10.1157 24.2964 9.44651 22.7686 9.47649 21.1834V15.928V15.8811V2.60442L40.4996 19.2198C42.2393 20.1541 42.8347 22.2192 41.8302 23.8346C41.5141 24.3493 41.0545 24.7757 40.4996 25.069L5.46246 43.8199C4.3393 44.424 2.95427 44.427 1.82808 43.8278C0.701879 43.2286 0.00521482 42.118 0 40.9135V3.37529C0.00267981 2.16938 0.697575 1.05612 1.8236 0.453783C2.94963 -0.148558 4.33624 -0.14875 5.46246 0.453277L6.73684 1.1356ZM4.98526 41.0073L5.61404 41.9813L7.16912 41.1479L6.56281 40.1739L4.98526 41.0073ZM7.09053 39.8822L7.69684 40.8562L9.27439 40.0124L8.66807 39.0645L7.09053 39.8822ZM6.17544 38.4186L6.78175 39.3926L8.36491 38.5436L7.75298 37.5696L6.17544 38.4186ZM9.18456 38.7572L9.79088 39.7312L11.3684 38.8874L10.7621 37.9082L9.18456 38.7572ZM8.2807 37.2935L8.88702 38.2675L10.4646 37.4238L9.85825 36.4602L8.2807 37.2935ZM7.37123 35.8299L7.97754 36.8039L9.54386 35.9393L8.93754 34.9653L7.37123 35.8299ZM10.3804 36.1685L10.9923 37.1425L12.5642 36.2987L11.9579 35.3195L10.3804 36.1685ZM12.4856 35.0382L13.0919 36.0174L14.6695 35.1737L14.0632 34.1944L12.4856 35.0382ZM9.47088 34.7049L10.1053 35.6789L11.6828 34.8351L11.0484 33.8559L9.47088 34.7049ZM14.5965 33.9132L15.1916 34.8976L16.7691 34.0538L16.1628 33.0798L14.5965 33.9132ZM16.6905 32.8142L17.2968 33.7882L18.8688 32.9444L18.2625 31.9704L16.6905 32.8142ZM18.7902 31.6891L19.3965 32.6631L20.974 31.7724L20.3677 30.7984L18.7902 31.6891ZM23.0175 29.413L23.5789 30.387L25.1565 29.5432L24.5502 28.5692L23.0175 29.413ZM27.2225 27.1577L27.8063 28.1264L29.3782 27.2775L28.7719 26.3034L27.2225 27.1577ZM29.2996 26.043L29.906 27.017L31.4835 26.1732L30.8772 25.1888L29.2996 26.043ZM31.3993 24.918L32 25.8816L33.5775 25.0378L32.9768 24.0638L31.3993 24.918ZM30.4898 23.4387L31.0961 24.4127L32.6737 23.5689L32.0674 22.5949L30.4898 23.4387ZM33.5046 23.7773L34.1109 24.7513L35.6884 23.9075L35.0765 22.9179L33.5046 23.7773ZM32.5951 22.3137L33.2014 23.2877L34.7733 22.4439L34.167 21.4699L32.5951 22.3137ZM29.5804 21.9751L30.1867 22.9543L31.7642 22.1105L31.1579 21.1365L29.5804 21.9751ZM26.2849 25.694L26.8912 26.668L28.4688 25.8243L27.8625 24.845L26.2849 25.694ZM13.6758 32.4652L14.2821 33.4444L15.8596 32.6006L15.2533 31.6214L13.6758 32.4652ZM6.46175 34.3767L7.06807 35.3507L8.64561 34.507L8.0393 33.533L6.46175 34.3767ZM5.55228 32.9027L6.17544 33.8819L7.75298 33.0329L7.12982 32.0589L5.55228 32.9027ZM11.2954 37.6269L11.9018 38.6061L13.4737 37.7571L12.8674 36.7831L11.2954 37.6269ZM13.3951 36.5018L14.0014 37.5019L15.5789 36.6581L14.9726 35.6841L13.3951 36.5018ZM15.4947 35.3768L16.1011 36.3508L17.6786 35.507L17.0723 34.533L15.4947 35.3768ZM17.6 34.2517L18.2063 35.2257L19.7839 34.3767L19.1775 33.4027L17.6 34.2517ZM19.6996 33.1267L20.306 34.1007L21.8947 33.2569L21.2772 32.2933L19.6996 33.1267ZM21.7993 32.0016L22.4112 32.9756L23.9832 32.1318L23.3768 31.1578L21.7993 32.0016ZM23.9046 30.8714L24.5109 31.8506L26.0884 31.0068L25.4821 30.0276L23.9046 30.8714ZM26.0042 29.7463L26.6105 30.7307L28.1881 29.8817L27.5818 28.9077L26.0042 29.7463ZM28.1095 28.6473L28.7158 29.6213L30.3158 28.7515L29.7039 27.7775L28.1095 28.6473ZM30.2091 27.5223L30.8154 28.4963L32.393 27.6056L31.7867 26.6316L30.2091 27.5223ZM32.3088 26.3972L32.9151 27.3712L34.4926 26.5274L33.8863 25.5222L32.3088 26.3972ZM34.414 25.2721L35.0204 26.2462L36.5979 25.4024L35.9916 24.4284L34.414 25.2721ZM36.4912 24.1211L37.0975 25.0951L38.6751 24.2513L38.0688 23.2721L36.4912 24.1211ZM15.8091 24.5586C17.2838 24.5607 18.6144 23.7379 19.1798 22.4742C19.7452 21.2106 19.4338 19.7554 18.3911 18.7879C17.3483 17.8205 15.7798 17.5316 14.4178 18.0562C13.0558 18.5807 12.169 19.8152 12.1712 21.1834C12.1727 22.0818 12.5595 22.9426 13.2463 23.5759C13.9331 24.2091 14.8633 24.5627 15.8316 24.5586H15.8091Z" fill="url(#paint0_linear_4011_1002)"/>
<path d="M66.3619 21.86C67.1085 21.9933 67.7419 22.3867 68.2619 23.04C68.7819 23.6933 69.0419 24.4333 69.0419 25.26C69.0419 25.9667 68.8552 26.6067 68.4819 27.18C68.1219 27.74 67.5952 28.1867 66.9019 28.52C66.2085 28.84 65.4019 29 64.4819 29H58.9219V15.1H64.2219C65.1685 15.1 65.9819 15.26 66.6619 15.58C67.3419 15.9 67.8552 16.3333 68.2019 16.88C68.5485 17.4133 68.7219 18.0133 68.7219 18.68C68.7219 19.48 68.5085 20.1467 68.0819 20.68C67.6552 21.2133 67.0819 21.6067 66.3619 21.86ZM61.2019 20.94H64.0219C64.7685 20.94 65.3485 20.7733 65.7619 20.44C66.1885 20.0933 66.4019 19.6 66.4019 18.96C66.4019 18.3333 66.1885 17.8467 65.7619 17.5C65.3485 17.14 64.7685 16.96 64.0219 16.96H61.2019V20.94ZM64.2819 27.14C65.0552 27.14 65.6619 26.9533 66.1019 26.58C66.5419 26.2067 66.7619 25.6867 66.7619 25.02C66.7619 24.34 66.5285 23.8 66.0619 23.4C65.5952 23 64.9752 22.8 64.2019 22.8H61.2019V27.14H64.2819ZM84.6195 23.22C84.6195 23.6333 84.5929 24.0067 84.5395 24.34H76.1195C76.1862 25.22 76.5129 25.9267 77.0995 26.46C77.6862 26.9933 78.4062 27.26 79.2595 27.26C80.4862 27.26 81.3529 26.7467 81.8595 25.72H84.3195C83.9862 26.7333 83.3795 27.5667 82.4995 28.22C81.6329 28.86 80.5529 29.18 79.2595 29.18C78.2062 29.18 77.2595 28.9467 76.4195 28.48C75.5929 28 74.9395 27.3333 74.4595 26.48C73.9929 25.6133 73.7595 24.6133 73.7595 23.48C73.7595 22.3467 73.9862 21.3533 74.4395 20.5C74.9062 19.6333 75.5529 18.9667 76.3795 18.5C77.2195 18.0333 78.1795 17.8 79.2595 17.8C80.2995 17.8 81.2262 18.0267 82.0395 18.48C82.8529 18.9333 83.4862 19.5733 83.9395 20.4C84.3929 21.2133 84.6195 22.1533 84.6195 23.22ZM82.2395 22.5C82.2262 21.66 81.9262 20.9867 81.3395 20.48C80.7529 19.9733 80.0262 19.72 79.1595 19.72C78.3729 19.72 77.6995 19.9733 77.1395 20.48C76.5795 20.9733 76.2462 21.6467 76.1395 22.5H82.2395ZM89.1033 23.44C89.1033 22.3333 89.3299 21.3533 89.7833 20.5C90.2499 19.6467 90.8766 18.9867 91.6633 18.52C92.4633 18.04 93.3433 17.8 94.3033 17.8C95.1699 17.8 95.9233 17.9733 96.5633 18.32C97.2166 18.6533 97.7366 19.0733 98.1233 19.58V17.98H100.423V29H98.1233V27.36C97.7366 27.88 97.2099 28.3133 96.5433 28.66C95.8766 29.0067 95.1166 29.18 94.2633 29.18C93.3166 29.18 92.4499 28.94 91.6633 28.46C90.8766 27.9667 90.2499 27.2867 89.7833 26.42C89.3299 25.54 89.1033 24.5467 89.1033 23.44ZM98.1233 23.48C98.1233 22.72 97.9633 22.06 97.6433 21.5C97.3366 20.94 96.9299 20.5133 96.4233 20.22C95.9166 19.9267 95.3699 19.78 94.7833 19.78C94.1966 19.78 93.6499 19.9267 93.1433 20.22C92.6366 20.5 92.2233 20.92 91.9033 21.48C91.5966 22.0267 91.4433 22.68 91.4433 23.44C91.4433 24.2 91.5966 24.8667 91.9033 25.44C92.2233 26.0133 92.6366 26.4533 93.1433 26.76C93.6633 27.0533 94.2099 27.2 94.7833 27.2C95.3699 27.2 95.9166 27.0533 96.4233 26.76C96.9299 26.4667 97.3366 26.04 97.6433 25.48C97.9633 24.9067 98.1233 24.24 98.1233 23.48ZM109.078 19.84V25.94C109.078 26.3533 109.171 26.6533 109.358 26.84C109.558 27.0133 109.891 27.1 110.358 27.1H111.758V29H109.958C108.931 29 108.145 28.76 107.598 28.28C107.051 27.8 106.778 27.02 106.778 25.94V19.84H105.478V17.98H106.778V15.24H109.078V17.98H111.758V19.84H109.078ZM125.239 26.16H119.419L118.419 29H116.039L121.019 15.08H123.659L128.639 29H126.239L125.239 26.16ZM124.599 24.3L122.339 17.84L120.059 24.3H124.599ZM136.085 15.1V29H133.805V15.1H136.085Z" fill="white"/>
</g>
<defs>
<linearGradient id="paint0_linear_4011_1002" x1="21.1593" y1="0.000131221" x2="21.1593" y2="44.2939" gradientUnits="userSpaceOnUse">
<stop stop-color="#47B5F5"/>
<stop offset="0.27" stop-color="#578DF7"/>
<stop offset="1" stop-color="#8021FC"/>
</linearGradient>
<clipPath id="clip0_4011_1002">
<rect width="160" height="44.5333" fill="white"/>
</clipPath>
</defs>
</svg>
