<svg width="23" height="23" viewBox="0 0 23 23" fill="none" xmlns="http://www.w3.org/2000/svg">
<path opacity="0.596977" fill-rule="evenodd" clip-rule="evenodd" d="M6.29268 6.26321L6.78857 19.709C6.8342 20.9463 7.86042 21.9352 9.08068 21.9177C9.45135 21.9124 9.81258 21.8126 10.1311 21.6275L21.0706 15.2717C22.1192 14.6625 22.462 13.2955 21.8362 12.2184C21.6461 11.8912 21.379 11.6159 21.0593 11.4177L9.62393 4.32775C8.57164 3.67533 7.21636 3.9988 6.59683 5.05025C6.38244 5.41411 6.27689 5.83504 6.29268 6.26321Z" fill="url(#paint0_linear_4130_28)"/>
<path opacity="0.596977" fill-rule="evenodd" clip-rule="evenodd" d="M6.29268 6.26321L6.78857 19.709C6.8342 20.9463 7.86042 21.9352 9.08068 21.9177C9.45135 21.9124 9.81258 21.8126 10.1311 21.6275L21.0706 15.2717C22.1192 14.6625 22.462 13.2955 21.8362 12.2184C21.6461 11.8912 21.379 11.6159 21.0593 11.4177L9.62393 4.32775C8.57164 3.67533 7.21636 3.9988 6.59683 5.05025C6.38244 5.41411 6.27689 5.83504 6.29268 6.26321Z" fill="url(#paint1_linear_4130_28)"/>
<defs>
<linearGradient id="paint0_linear_4130_28" x1="24.0557" y1="2.81467" x2="18.975" y2="16.1971" gradientUnits="userSpaceOnUse">
<stop stop-color="#B949BE" stop-opacity="0.539289"/>
<stop offset="1" stop-color="#0194FE"/>
</linearGradient>
<linearGradient id="paint1_linear_4130_28" x1="24.0557" y1="2.81467" x2="36.7161" y2="58.272" gradientUnits="userSpaceOnUse">
<stop stop-color="#B949BE"/>
<stop offset="1" stop-color="#0194FE"/>
</linearGradient>
</defs>
</svg>
