<svg width="67" height="66" viewBox="0 0 67 66" fill="none" xmlns="http://www.w3.org/2000/svg">
<g filter="url(#filter0_d_204_658)">
<circle cx="33.3418" cy="28" r="18" fill="url(#paint0_linear_204_658)"/>
</g>
<path d="M24.3418 26H23.3418C23.3418 26.5523 23.7895 27 24.3418 27L24.3418 26ZM24.3418 30L24.3418 29C23.7895 29 23.3418 29.4477 23.3418 30H24.3418ZM42.3418 26V27C42.8941 27 43.3418 26.5523 43.3418 26H42.3418ZM42.3418 30H43.3418C43.3418 29.4477 42.8941 29 42.3418 29V30ZM26.3418 22H31.3418V20H26.3418V22ZM31.3418 22H40.3418V20H31.3418V22ZM40.3418 34H31.3418V36H40.3418V34ZM31.3418 34H26.3418V36H31.3418V34ZM30.3418 21V35H32.3418V21H30.3418ZM25.0489 27.2929C25.4394 27.6834 25.4394 28.3166 25.0489 28.7071L26.4631 30.1213C27.6347 28.9497 27.6347 27.0503 26.4631 25.8787L25.0489 27.2929ZM41.6347 28.7071C41.2442 28.3166 41.2442 27.6834 41.6347 27.2929L40.2205 25.8787C39.0489 27.0503 39.0489 28.9497 40.2205 30.1213L41.6347 28.7071ZM24.3418 27C24.5993 27 24.8534 27.0974 25.0489 27.2929L26.4631 25.8787C25.8775 25.2931 25.108 25 24.3418 25L24.3418 27ZM25.3418 26V23H23.3418V26H25.3418ZM25.3418 33V30H23.3418V33H25.3418ZM25.0489 28.7071C24.8534 28.9026 24.5993 29 24.3418 29L24.3418 31C25.108 31 25.8775 30.7069 26.4631 30.1213L25.0489 28.7071ZM41.6347 27.2929C41.8301 27.0974 42.0843 27 42.3418 27V25C41.5756 25 40.8061 25.2931 40.2205 25.8787L41.6347 27.2929ZM41.3418 23V26H43.3418V23H41.3418ZM41.3418 30C41.3418 30.0015 41.3418 30.0029 41.3418 30.0044C41.3418 30.0059 41.3418 30.0073 41.3418 30.0088C41.3418 30.0103 41.3418 30.0118 41.3418 30.0132C41.3418 30.0147 41.3418 30.0162 41.3418 30.0176C41.3418 30.0191 41.3418 30.0206 41.3418 30.0221C41.3418 30.0236 41.3418 30.025 41.3418 30.0265C41.3418 30.028 41.3418 30.0295 41.3418 30.031C41.3418 30.0325 41.3418 30.0339 41.3418 30.0354C41.3418 30.0369 41.3418 30.0384 41.3418 30.0399C41.3418 30.0414 41.3418 30.0429 41.3418 30.0444C41.3418 30.0459 41.3418 30.0474 41.3418 30.0489C41.3418 30.0504 41.3418 30.0519 41.3418 30.0534C41.3418 30.0549 41.3418 30.0564 41.3418 30.0579C41.3418 30.0594 41.3418 30.0609 41.3418 30.0624C41.3418 30.0639 41.3418 30.0654 41.3418 30.0669C41.3418 30.0684 41.3418 30.0699 41.3418 30.0714C41.3418 30.0729 41.3418 30.0744 41.3418 30.0759C41.3418 30.0775 41.3418 30.079 41.3418 30.0805C41.3418 30.082 41.3418 30.0835 41.3418 30.085C41.3418 30.0866 41.3418 30.0881 41.3418 30.0896C41.3418 30.0911 41.3418 30.0927 41.3418 30.0942C41.3418 30.0957 41.3418 30.0972 41.3418 30.0988C41.3418 30.1003 41.3418 30.1018 41.3418 30.1033C41.3418 30.1049 41.3418 30.1064 41.3418 30.1079C41.3418 30.1095 41.3418 30.111 41.3418 30.1125C41.3418 30.1141 41.3418 30.1156 41.3418 30.1171C41.3418 30.1187 41.3418 30.1202 41.3418 30.1218C41.3418 30.1233 41.3418 30.1248 41.3418 30.1264C41.3418 30.1279 41.3418 30.1295 41.3418 30.131C41.3418 30.1326 41.3418 30.1341 41.3418 30.1357C41.3418 30.1372 41.3418 30.1388 41.3418 30.1403C41.3418 30.1419 41.3418 30.1434 41.3418 30.145C41.3418 30.1465 41.3418 30.1481 41.3418 30.1496C41.3418 30.1512 41.3418 30.1528 41.3418 30.1543C41.3418 30.1559 41.3418 30.1574 41.3418 30.159C41.3418 30.1606 41.3418 30.1621 41.3418 30.1637C41.3418 30.1653 41.3418 30.1668 41.3418 30.1684C41.3418 30.17 41.3418 30.1715 41.3418 30.1731C41.3418 30.1747 41.3418 30.1762 41.3418 30.1778C41.3418 30.1794 41.3418 30.181 41.3418 30.1825C41.3418 30.1841 41.3418 30.1857 41.3418 30.1873C41.3418 30.1889 41.3418 30.1904 41.3418 30.192C41.3418 30.1936 41.3418 30.1952 41.3418 30.1968C41.3418 30.1983 41.3418 30.1999 41.3418 30.2015C41.3418 30.2031 41.3418 30.2047 41.3418 30.2063C41.3418 30.2079 41.3418 30.2095 41.3418 30.2111C41.3418 30.2126 41.3418 30.2142 41.3418 30.2158C41.3418 30.2174 41.3418 30.219 41.3418 30.2206C41.3418 30.2222 41.3418 30.2238 41.3418 30.2254C41.3418 30.227 41.3418 30.2286 41.3418 30.2302C41.3418 30.2318 41.3418 30.2334 41.3418 30.235C41.3418 30.2366 41.3418 30.2382 41.3418 30.2398C41.3418 30.2415 41.3418 30.2431 41.3418 30.2447C41.3418 30.2463 41.3418 30.2479 41.3418 30.2495C41.3418 30.2511 41.3418 30.2527 41.3418 30.2543C41.3418 30.256 41.3418 30.2576 41.3418 30.2592C41.3418 30.2608 41.3418 30.2624 41.3418 30.264C41.3418 30.2657 41.3418 30.2673 41.3418 30.2689C41.3418 30.2705 41.3418 30.2722 41.3418 30.2738C41.3418 30.2754 41.3418 30.277 41.3418 30.2787C41.3418 30.2803 41.3418 30.2819 41.3418 30.2836C41.3418 30.2852 41.3418 30.2868 41.3418 30.2884C41.3418 30.2901 41.3418 30.2917 41.3418 30.2934C41.3418 30.295 41.3418 30.2966 41.3418 30.2983C41.3418 30.2999 41.3418 30.3015 41.3418 30.3032C41.3418 30.3048 41.3418 30.3065 41.3418 30.3081C41.3418 30.3097 41.3418 30.3114 41.3418 30.313C41.3418 30.3147 41.3418 30.3163 41.3418 30.318C41.3418 30.3196 41.3418 30.3213 41.3418 30.3229C41.3418 30.3246 41.3418 30.3262 41.3418 30.3279C41.3418 30.3295 41.3418 30.3312 41.3418 30.3328C41.3418 30.3345 41.3418 30.3362 41.3418 30.3378C41.3418 30.3395 41.3418 30.3411 41.3418 30.3428C41.3418 30.3445 41.3418 30.3461 41.3418 30.3478C41.3418 30.3494 41.3418 30.3511 41.3418 30.3528C41.3418 30.3544 41.3418 30.3561 41.3418 30.3578C41.3418 30.3594 41.3418 30.3611 41.3418 30.3628C41.3418 30.3644 41.3418 30.3661 41.3418 30.3678C41.3418 30.3695 41.3418 30.3711 41.3418 30.3728C41.3418 30.3745 41.3418 30.3762 41.3418 30.3778C41.3418 30.3795 41.3418 30.3812 41.3418 30.3829C41.3418 30.3846 41.3418 30.3862 41.3418 30.3879C41.3418 30.3896 41.3418 30.3913 41.3418 30.393C41.3418 30.3947 41.3418 30.3963 41.3418 30.398C41.3418 30.3997 41.3418 30.4014 41.3418 30.4031C41.3418 30.4048 41.3418 30.4065 41.3418 30.4082C41.3418 30.4099 41.3418 30.4116 41.3418 30.4133C41.3418 30.4149 41.3418 30.4166 41.3418 30.4183C41.3418 30.42 41.3418 30.4217 41.3418 30.4234C41.3418 30.4251 41.3418 30.4268 41.3418 30.4285C41.3418 30.4302 41.3418 30.4319 41.3418 30.4336C41.3418 30.4353 41.3418 30.4371 41.3418 30.4388C41.3418 30.4405 41.3418 30.4422 41.3418 30.4439C41.3418 30.4456 41.3418 30.4473 41.3418 30.449C41.3418 30.4507 41.3418 30.4524 41.3418 30.4541C41.3418 30.4559 41.3418 30.4576 41.3418 30.4593C41.3418 30.461 41.3418 30.4627 41.3418 30.4644C41.3418 30.4662 41.3418 30.4679 41.3418 30.4696C41.3418 30.4713 41.3418 30.473 41.3418 30.4748C41.3418 30.4765 41.3418 30.4782 41.3418 30.4799C41.3418 30.4817 41.3418 30.4834 41.3418 30.4851C41.3418 30.4868 41.3418 30.4886 41.3418 30.4903C41.3418 30.492 41.3418 30.4938 41.3418 30.4955C41.3418 30.4972 41.3418 30.499 41.3418 30.5007C41.3418 30.5024 41.3418 30.5042 41.3418 30.5059C41.3418 30.5076 41.3418 30.5094 41.3418 30.5111C41.3418 30.5128 41.3418 30.5146 41.3418 30.5163C41.3418 30.5181 41.3418 30.5198 41.3418 30.5216C41.3418 30.5233 41.3418 30.525 41.3418 30.5268C41.3418 30.5285 41.3418 30.5303 41.3418 30.532C41.3418 30.5338 41.3418 30.5355 41.3418 30.5373C41.3418 30.539 41.3418 30.5408 41.3418 30.5425C41.3418 30.5443 41.3418 30.546 41.3418 30.5478C41.3418 30.5495 41.3418 30.5513 41.3418 30.5531C41.3418 30.5548 41.3418 30.5566 41.3418 30.5583C41.3418 30.5601 41.3418 30.5619 41.3418 30.5636C41.3418 30.5654 41.3418 30.5671 41.3418 30.5689C41.3418 30.5707 41.3418 30.5724 41.3418 30.5742C41.3418 30.576 41.3418 30.5777 41.3418 30.5795C41.3418 30.5813 41.3418 30.583 41.3418 30.5848C41.3418 30.5866 41.3418 30.5883 41.3418 30.5901C41.3418 30.5919 41.3418 30.5937 41.3418 30.5954C41.3418 30.5972 41.3418 30.599 41.3418 30.6008C41.3418 30.6025 41.3418 30.6043 41.3418 30.6061C41.3418 30.6079 41.3418 30.6097 41.3418 30.6114C41.3418 30.6132 41.3418 30.615 41.3418 30.6168C41.3418 30.6186 41.3418 30.6204 41.3418 30.6221C41.3418 30.6239 41.3418 30.6257 41.3418 30.6275C41.3418 30.6293 41.3418 30.6311 41.3418 30.6329C41.3418 30.6347 41.3418 30.6364 41.3418 30.6382C41.3418 30.64 41.3418 30.6418 41.3418 30.6436C41.3418 30.6454 41.3418 30.6472 41.3418 30.649C41.3418 30.6508 41.3418 30.6526 41.3418 30.6544C41.3418 30.6562 41.3418 30.658 41.3418 30.6598C41.3418 30.6616 41.3418 30.6634 41.3418 30.6652C41.3418 30.667 41.3418 30.6688 41.3418 30.6706C41.3418 30.6724 41.3418 30.6742 41.3418 30.676C41.3418 30.6778 41.3418 30.6796 41.3418 30.6814C41.3418 30.6833 41.3418 30.6851 41.3418 30.6869C41.3418 30.6887 41.3418 30.6905 41.3418 30.6923C41.3418 30.6941 41.3418 30.6959 41.3418 30.6978C41.3418 30.6996 41.3418 30.7014 41.3418 30.7032C41.3418 30.705 41.3418 30.7068 41.3418 30.7087C41.3418 30.7105 41.3418 30.7123 41.3418 30.7141C41.3418 30.7159 41.3418 30.7178 41.3418 30.7196C41.3418 30.7214 41.3418 30.7232 41.3418 30.7251C41.3418 30.7269 41.3418 30.7287 41.3418 30.7305C41.3418 30.7324 41.3418 30.7342 41.3418 30.736C41.3418 30.7378 41.3418 30.7397 41.3418 30.7415C41.3418 30.7433 41.3418 30.7452 41.3418 30.747C41.3418 30.7488 41.3418 30.7507 41.3418 30.7525C41.3418 30.7543 41.3418 30.7562 41.3418 30.758C41.3418 30.7599 41.3418 30.7617 41.3418 30.7635C41.3418 30.7654 41.3418 30.7672 41.3418 30.7691C41.3418 30.7709 41.3418 30.7727 41.3418 30.7746C41.3418 30.7764 41.3418 30.7783 41.3418 30.7801C41.3418 30.782 41.3418 30.7838 41.3418 30.7857C41.3418 30.7875 41.3418 30.7894 41.3418 30.7912C41.3418 30.7931 41.3418 30.7949 41.3418 30.7968C41.3418 30.7986 41.3418 30.8005 41.3418 30.8023C41.3418 30.8042 41.3418 30.806 41.3418 30.8079C41.3418 30.8097 41.3418 30.8116 41.3418 30.8134C41.3418 30.8153 41.3418 30.8172 41.3418 30.819C41.3418 30.8209 41.3418 30.8227 41.3418 30.8246C41.3418 30.8265 41.3418 30.8283 41.3418 30.8302C41.3418 30.8321 41.3418 30.8339 41.3418 30.8358C41.3418 30.8376 41.3418 30.8395 41.3418 30.8414C41.3418 30.8433 41.3418 30.8451 41.3418 30.847C41.3418 30.8489 41.3418 30.8507 41.3418 30.8526C41.3418 30.8545 41.3418 30.8563 41.3418 30.8582C41.3418 30.8601 41.3418 30.862 41.3418 30.8638C41.3418 30.8657 41.3418 30.8676 41.3418 30.8695C41.3418 30.8713 41.3418 30.8732 41.3418 30.8751C41.3418 30.877 41.3418 30.8789 41.3418 30.8807C41.3418 30.8826 41.3418 30.8845 41.3418 30.8864C41.3418 30.8883 41.3418 30.8901 41.3418 30.892C41.3418 30.8939 41.3418 30.8958 41.3418 30.8977C41.3418 30.8996 41.3418 30.9015 41.3418 30.9033C41.3418 30.9052 41.3418 30.9071 41.3418 30.909C41.3418 30.9109 41.3418 30.9128 41.3418 30.9147C41.3418 30.9166 41.3418 30.9185 41.3418 30.9204C41.3418 30.9223 41.3418 30.9241 41.3418 30.926C41.3418 30.9279 41.3418 30.9298 41.3418 30.9317C41.3418 30.9336 41.3418 30.9355 41.3418 30.9374C41.3418 30.9393 41.3418 30.9412 41.3418 30.9431C41.3418 30.945 41.3418 30.9469 41.3418 30.9488C41.3418 30.9507 41.3418 30.9526 41.3418 30.9545C41.3418 30.9564 41.3418 30.9584 41.3418 30.9603C41.3418 30.9622 41.3418 30.9641 41.3418 30.966C41.3418 30.9679 41.3418 30.9698 41.3418 30.9717C41.3418 30.9736 41.3418 30.9755 41.3418 30.9774C41.3418 30.9794 41.3418 30.9813 41.3418 30.9832C41.3418 30.9851 41.3418 30.987 41.3418 30.9889C41.3418 30.9908 41.3418 30.9928 41.3418 30.9947C41.3418 30.9966 41.3418 30.9985 41.3418 31.0004C41.3418 31.0023 41.3418 31.0043 41.3418 31.0062C41.3418 31.0081 41.3418 31.01 41.3418 31.012C41.3418 31.0139 41.3418 31.0158 41.3418 31.0177C41.3418 31.0196 41.3418 31.0216 41.3418 31.0235C41.3418 31.0254 41.3418 31.0273 41.3418 31.0293C41.3418 31.0312 41.3418 31.0331 41.3418 31.0351C41.3418 31.037 41.3418 31.0389 41.3418 31.0409C41.3418 31.0428 41.3418 31.0447 41.3418 31.0466C41.3418 31.0486 41.3418 31.0505 41.3418 31.0524C41.3418 31.0544 41.3418 31.0563 41.3418 31.0583C41.3418 31.0602 41.3418 31.0621 41.3418 31.0641C41.3418 31.066 41.3418 31.0679 41.3418 31.0699C41.3418 31.0718 41.3418 31.0738 41.3418 31.0757C41.3418 31.0776 41.3418 31.0796 41.3418 31.0815C41.3418 31.0835 41.3418 31.0854 41.3418 31.0874C41.3418 31.0893 41.3418 31.0913 41.3418 31.0932C41.3418 31.0951 41.3418 31.0971 41.3418 31.099C41.3418 31.101 41.3418 31.1029 41.3418 31.1049C41.3418 31.1068 41.3418 31.1088 41.3418 31.1107C41.3418 31.1127 41.3418 31.1146 41.3418 31.1166C41.3418 31.1185 41.3418 31.1205 41.3418 31.1225C41.3418 31.1244 41.3418 31.1264 41.3418 31.1283C41.3418 31.1303 41.3418 31.1322 41.3418 31.1342C41.3418 31.1362 41.3418 31.1381 41.3418 31.1401C41.3418 31.142 41.3418 31.144 41.3418 31.146C41.3418 31.1479 41.3418 31.1499 41.3418 31.1518C41.3418 31.1538 41.3418 31.1558 41.3418 31.1577C41.3418 31.1597 41.3418 31.1617 41.3418 31.1636C41.3418 31.1656 41.3418 31.1676 41.3418 31.1695C41.3418 31.1715 41.3418 31.1735 41.3418 31.1754C41.3418 31.1774 41.3418 31.1794 41.3418 31.1813C41.3418 31.1833 41.3418 31.1853 41.3418 31.1873C41.3418 31.1892 41.3418 31.1912 41.3418 31.1932C41.3418 31.1952 41.3418 31.1971 41.3418 31.1991C41.3418 31.2011 41.3418 31.2031 41.3418 31.205C41.3418 31.207 41.3418 31.209 41.3418 31.211C41.3418 31.2129 41.3418 31.2149 41.3418 31.2169C41.3418 31.2189 41.3418 31.2209 41.3418 31.2228C41.3418 31.2248 41.3418 31.2268 41.3418 31.2288C41.3418 31.2308 41.3418 31.2328 41.3418 31.2347C41.3418 31.2367 41.3418 31.2387 41.3418 31.2407C41.3418 31.2427 41.3418 31.2447 41.3418 31.2467C41.3418 31.2487 41.3418 31.2506 41.3418 31.2526C41.3418 31.2546 41.3418 31.2566 41.3418 31.2586C41.3418 31.2606 41.3418 31.2626 41.3418 31.2646C41.3418 31.2666 41.3418 31.2686 41.3418 31.2706C41.3418 31.2726 41.3418 31.2745 41.3418 31.2765C41.3418 31.2785 41.3418 31.2805 41.3418 31.2825C41.3418 31.2845 41.3418 31.2865 41.3418 31.2885C41.3418 31.2905 41.3418 31.2925 41.3418 31.2945C41.3418 31.2965 41.3418 31.2985 41.3418 31.3005C41.3418 31.3025 41.3418 31.3045 41.3418 31.3065C41.3418 31.3085 41.3418 31.3105 41.3418 31.3125C41.3418 31.3145 41.3418 31.3166 41.3418 31.3186C41.3418 31.3206 41.3418 31.3226 41.3418 31.3246C41.3418 31.3266 41.3418 31.3286 41.3418 31.3306C41.3418 31.3326 41.3418 31.3346 41.3418 31.3366C41.3418 31.3386 41.3418 31.3407 41.3418 31.3427C41.3418 31.3447 41.3418 31.3467 41.3418 31.3487C41.3418 31.3507 41.3418 31.3527 41.3418 31.3547C41.3418 31.3568 41.3418 31.3588 41.3418 31.3608C41.3418 31.3628 41.3418 31.3648 41.3418 31.3668C41.3418 31.3689 41.3418 31.3709 41.3418 31.3729C41.3418 31.3749 41.3418 31.3769 41.3418 31.379C41.3418 31.381 41.3418 31.383 41.3418 31.385C41.3418 31.387 41.3418 31.3891 41.3418 31.3911C41.3418 31.3931 41.3418 31.3951 41.3418 31.3972C41.3418 31.3992 41.3418 31.4012 41.3418 31.4032C41.3418 31.4053 41.3418 31.4073 41.3418 31.4093C41.3418 31.4113 41.3418 31.4134 41.3418 31.4154C41.3418 31.4174 41.3418 31.4194 41.3418 31.4215C41.3418 31.4235 41.3418 31.4255 41.3418 31.4276C41.3418 31.4296 41.3418 31.4316 41.3418 31.4337C41.3418 31.4357 41.3418 31.4377 41.3418 31.4398C41.3418 31.4418 41.3418 31.4438 41.3418 31.4459C41.3418 31.4479 41.3418 31.4499 41.3418 31.452C41.3418 31.454 41.3418 31.456 41.3418 31.4581C41.3418 31.4601 41.3418 31.4622 41.3418 31.4642C41.3418 31.4662 41.3418 31.4683 41.3418 31.4703C41.3418 31.4724 41.3418 31.4744 41.3418 31.4764C41.3418 31.4785 41.3418 31.4805 41.3418 31.4826C41.3418 31.4846 41.3418 31.4867 41.3418 31.4887C41.3418 31.4907 41.3418 31.4928 41.3418 31.4948C41.3418 31.4969 41.3418 31.4989 41.3418 31.501C41.3418 31.503 41.3418 31.5051 41.3418 31.5071C41.3418 31.5092 41.3418 31.5112 41.3418 31.5133C41.3418 31.5153 41.3418 31.5174 41.3418 31.5194C41.3418 31.5215 41.3418 31.5235 41.3418 31.5256C41.3418 31.5276 41.3418 31.5297 41.3418 31.5317C41.3418 31.5338 41.3418 31.5358 41.3418 31.5379C41.3418 31.5399 41.3418 31.542 41.3418 31.5441C41.3418 31.5461 41.3418 31.5482 41.3418 31.5502C41.3418 31.5523 41.3418 31.5543 41.3418 31.5564C41.3418 31.5585 41.3418 31.5605 41.3418 31.5626C41.3418 31.5646 41.3418 31.5667 41.3418 31.5688C41.3418 31.5708 41.3418 31.5729 41.3418 31.5749C41.3418 31.577 41.3418 31.5791 41.3418 31.5811C41.3418 31.5832 41.3418 31.5853 41.3418 31.5873C41.3418 31.5894 41.3418 31.5915 41.3418 31.5935C41.3418 31.5956 41.3418 31.5977 41.3418 31.5997C41.3418 31.6018 41.3418 31.6039 41.3418 31.6059C41.3418 31.608 41.3418 31.6101 41.3418 31.6121C41.3418 31.6142 41.3418 31.6163 41.3418 31.6183C41.3418 31.6204 41.3418 31.6225 41.3418 31.6245C41.3418 31.6266 41.3418 31.6287 41.3418 31.6308C41.3418 31.6328 41.3418 31.6349 41.3418 31.637C41.3418 31.6391 41.3418 31.6411 41.3418 31.6432C41.3418 31.6453 41.3418 31.6474 41.3418 31.6494C41.3418 31.6515 41.3418 31.6536 41.3418 31.6557C41.3418 31.6577 41.3418 31.6598 41.3418 31.6619C41.3418 31.664 41.3418 31.6661 41.3418 31.6681C41.3418 31.6702 41.3418 31.6723 41.3418 31.6744C41.3418 31.6765 41.3418 31.6785 41.3418 31.6806C41.3418 31.6827 41.3418 31.6848 41.3418 31.6869C41.3418 31.6889 41.3418 31.691 41.3418 31.6931C41.3418 31.6952 41.3418 31.6973 41.3418 31.6994C41.3418 31.7015 41.3418 31.7035 41.3418 31.7056C41.3418 31.7077 41.3418 31.7098 41.3418 31.7119C41.3418 31.714 41.3418 31.7161 41.3418 31.7182C41.3418 31.7202 41.3418 31.7223 41.3418 31.7244C41.3418 31.7265 41.3418 31.7286 41.3418 31.7307C41.3418 31.7328 41.3418 31.7349 41.3418 31.737C41.3418 31.7391 41.3418 31.7411 41.3418 31.7432C41.3418 31.7453 41.3418 31.7474 41.3418 31.7495C41.3418 31.7516 41.3418 31.7537 41.3418 31.7558C41.3418 31.7579 41.3418 31.76 41.3418 31.7621C41.3418 31.7642 41.3418 31.7663 41.3418 31.7684C41.3418 31.7705 41.3418 31.7726 41.3418 31.7747C41.3418 31.7768 41.3418 31.7789 41.3418 31.781C41.3418 31.7831 41.3418 31.7852 41.3418 31.7873C41.3418 31.7894 41.3418 31.7915 41.3418 31.7936C41.3418 31.7957 41.3418 31.7978 41.3418 31.7999C41.3418 31.802 41.3418 31.8041 41.3418 31.8062C41.3418 31.8083 41.3418 31.8104 41.3418 31.8125C41.3418 31.8146 41.3418 31.8167 41.3418 31.8188C41.3418 31.8209 41.3418 31.823 41.3418 31.8251C41.3418 31.8272 41.3418 31.8293 41.3418 31.8314C41.3418 31.8335 41.3418 31.8356 41.3418 31.8378C41.3418 31.8399 41.3418 31.842 41.3418 31.8441C41.3418 31.8462 41.3418 31.8483 41.3418 31.8504C41.3418 31.8525 41.3418 31.8546 41.3418 31.8567C41.3418 31.8589 41.3418 31.861 41.3418 31.8631C41.3418 31.8652 41.3418 31.8673 41.3418 31.8694C41.3418 31.8715 41.3418 31.8736 41.3418 31.8758C41.3418 31.8779 41.3418 31.88 41.3418 31.8821C41.3418 31.8842 41.3418 31.8863 41.3418 31.8884C41.3418 31.8906 41.3418 31.8927 41.3418 31.8948C41.3418 31.8969 41.3418 31.899 41.3418 31.9011C41.3418 31.9033 41.3418 31.9054 41.3418 31.9075C41.3418 31.9096 41.3418 31.9117 41.3418 31.9138C41.3418 31.916 41.3418 31.9181 41.3418 31.9202C41.3418 31.9223 41.3418 31.9244 41.3418 31.9266C41.3418 31.9287 41.3418 31.9308 41.3418 31.9329C41.3418 31.9351 41.3418 31.9372 41.3418 31.9393C41.3418 31.9414 41.3418 31.9435 41.3418 31.9457C41.3418 31.9478 41.3418 31.9499 41.3418 31.952C41.3418 31.9542 41.3418 31.9563 41.3418 31.9584C41.3418 31.9605 41.3418 31.9627 41.3418 31.9648C41.3418 31.9669 41.3418 31.969 41.3418 31.9712C41.3418 31.9733 41.3418 31.9754 41.3418 31.9776C41.3418 31.9797 41.3418 31.9818 41.3418 31.9839C41.3418 31.9861 41.3418 31.9882 41.3418 31.9903C41.3418 31.9925 41.3418 31.9946 41.3418 31.9967C41.3418 31.9989 41.3418 32.001 41.3418 32.0031C41.3418 32.0052 41.3418 32.0074 41.3418 32.0095C41.3418 32.0116 41.3418 32.0138 41.3418 32.0159C41.3418 32.018 41.3418 32.0202 41.3418 32.0223C41.3418 32.0244 41.3418 32.0266 41.3418 32.0287C41.3418 32.0308 41.3418 32.033 41.3418 32.0351C41.3418 32.0372 41.3418 32.0394 41.3418 32.0415C41.3418 32.0437 41.3418 32.0458 41.3418 32.0479C41.3418 32.0501 41.3418 32.0522 41.3418 32.0543C41.3418 32.0565 41.3418 32.0586 41.3418 32.0608C41.3418 32.0629 41.3418 32.065 41.3418 32.0672C41.3418 32.0693 41.3418 32.0715 41.3418 32.0736C41.3418 32.0757 41.3418 32.0779 41.3418 32.08C41.3418 32.0822 41.3418 32.0843 41.3418 32.0864C41.3418 32.0886 41.3418 32.0907 41.3418 32.0929C41.3418 32.095 41.3418 32.0971 41.3418 32.0993C41.3418 32.1014 41.3418 32.1036 41.3418 32.1057C41.3418 32.1079 41.3418 32.11 41.3418 32.1122C41.3418 32.1143 41.3418 32.1164 41.3418 32.1186C41.3418 32.1207 41.3418 32.1229 41.3418 32.125C41.3418 32.1272 41.3418 32.1293 41.3418 32.1315C41.3418 32.1336 41.3418 32.1358 41.3418 32.1379C41.3418 32.1401 41.3418 32.1422 41.3418 32.1443C41.3418 32.1465 41.3418 32.1486 41.3418 32.1508C41.3418 32.1529 41.3418 32.1551 41.3418 32.1572C41.3418 32.1594 41.3418 32.1615 41.3418 32.1637C41.3418 32.1658 41.3418 32.168 41.3418 32.1701C41.3418 32.1723 41.3418 32.1744 41.3418 32.1766C41.3418 32.1787 41.3418 32.1809 41.3418 32.183C41.3418 32.1852 41.3418 32.1874 41.3418 32.1895C41.3418 32.1917 41.3418 32.1938 41.3418 32.196C41.3418 32.1981 41.3418 32.2003 41.3418 32.2024C41.3418 32.2046 41.3418 32.2067 41.3418 32.2089C41.3418 32.211 41.3418 32.2132 41.3418 32.2154C41.3418 32.2175 41.3418 32.2197 41.3418 32.2218C41.3418 32.224 41.3418 32.2261 41.3418 32.2283C41.3418 32.2304 41.3418 32.2326 41.3418 32.2348C41.3418 32.2369 41.3418 32.2391 41.3418 32.2412C41.3418 32.2434 41.3418 32.2456 41.3418 32.2477C41.3418 32.2499 41.3418 32.252 41.3418 32.2542C41.3418 32.2563 41.3418 32.2585 41.3418 32.2607C41.3418 32.2628 41.3418 32.265 41.3418 32.2671C41.3418 32.2693 41.3418 32.2715 41.3418 32.2736C41.3418 32.2758 41.3418 32.2779 41.3418 32.2801C41.3418 32.2823 41.3418 32.2844 41.3418 32.2866C41.3418 32.2888 41.3418 32.2909 41.3418 32.2931C41.3418 32.2952 41.3418 32.2974 41.3418 32.2996C41.3418 32.3017 41.3418 32.3039 41.3418 32.3061C41.3418 32.3082 41.3418 32.3104 41.3418 32.3126C41.3418 32.3147 41.3418 32.3169 41.3418 32.319C41.3418 32.3212 41.3418 32.3234 41.3418 32.3255C41.3418 32.3277 41.3418 32.3299 41.3418 32.332C41.3418 32.3342 41.3418 32.3364 41.3418 32.3385C41.3418 32.3407 41.3418 32.3429 41.3418 32.345C41.3418 32.3472 41.3418 32.3494 41.3418 32.3515C41.3418 32.3537 41.3418 32.3559 41.3418 32.358C41.3418 32.3602 41.3418 32.3624 41.3418 32.3645C41.3418 32.3667 41.3418 32.3689 41.3418 32.371C41.3418 32.3732 41.3418 32.3754 41.3418 32.3776C41.3418 32.3797 41.3418 32.3819 41.3418 32.3841C41.3418 32.3862 41.3418 32.3884 41.3418 32.3906C41.3418 32.3927 41.3418 32.3949 41.3418 32.3971C41.3418 32.3993 41.3418 32.4014 41.3418 32.4036C41.3418 32.4058 41.3418 32.4079 41.3418 32.4101C41.3418 32.4123 41.3418 32.4145 41.3418 32.4166C41.3418 32.4188 41.3418 32.421 41.3418 32.4232C41.3418 32.4253 41.3418 32.4275 41.3418 32.4297C41.3418 32.4318 41.3418 32.434 41.3418 32.4362C41.3418 32.4384 41.3418 32.4405 41.3418 32.4427C41.3418 32.4449 41.3418 32.4471 41.3418 32.4492C41.3418 32.4514 41.3418 32.4536 41.3418 32.4558C41.3418 32.4579 41.3418 32.4601 41.3418 32.4623C41.3418 32.4645 41.3418 32.4666 41.3418 32.4688C41.3418 32.471 41.3418 32.4732 41.3418 32.4753C41.3418 32.4775 41.3418 32.4797 41.3418 32.4819C41.3418 32.484 41.3418 32.4862 41.3418 32.4884C41.3418 32.4906 41.3418 32.4927 41.3418 32.4949C41.3418 32.4971 41.3418 32.4993 41.3418 32.5015C41.3418 32.5036 41.3418 32.5058 41.3418 32.508C41.3418 32.5102 41.3418 32.5123 41.3418 32.5145C41.3418 32.5167 41.3418 32.5189 41.3418 32.5211C41.3418 32.5232 41.3418 32.5254 41.3418 32.5276C41.3418 32.5298 41.3418 32.532 41.3418 32.5341C41.3418 32.5363 41.3418 32.5385 41.3418 32.5407C41.3418 32.5429 41.3418 32.545 41.3418 32.5472C41.3418 32.5494 41.3418 32.5516 41.3418 32.5538C41.3418 32.5559 41.3418 32.5581 41.3418 32.5603C41.3418 32.5625 41.3418 32.5647 41.3418 32.5668C41.3418 32.569 41.3418 32.5712 41.3418 32.5734C41.3418 32.5756 41.3418 32.5778 41.3418 32.5799C41.3418 32.5821 41.3418 32.5843 41.3418 32.5865C41.3418 32.5887 41.3418 32.5908 41.3418 32.593C41.3418 32.5952 41.3418 32.5974 41.3418 32.5996C41.3418 32.6018 41.3418 32.6039 41.3418 32.6061C41.3418 32.6083 41.3418 32.6105 41.3418 32.6127C41.3418 32.6149 41.3418 32.617 41.3418 32.6192C41.3418 32.6214 41.3418 32.6236 41.3418 32.6258C41.3418 32.628 41.3418 32.6301 41.3418 32.6323C41.3418 32.6345 41.3418 32.6367 41.3418 32.6389C41.3418 32.6411 41.3418 32.6432 41.3418 32.6454C41.3418 32.6476 41.3418 32.6498 41.3418 32.652C41.3418 32.6542 41.3418 32.6564 41.3418 32.6585C41.3418 32.6607 41.3418 32.6629 41.3418 32.6651C41.3418 32.6673 41.3418 32.6695 41.3418 32.6717C41.3418 32.6738 41.3418 32.676 41.3418 32.6782C41.3418 32.6804 41.3418 32.6826 41.3418 32.6848C41.3418 32.687 41.3418 32.6891 41.3418 32.6913C41.3418 32.6935 41.3418 32.6957 41.3418 32.6979C41.3418 32.7001 41.3418 32.7023 41.3418 32.7044C41.3418 32.7066 41.3418 32.7088 41.3418 32.711C41.3418 32.7132 41.3418 32.7154 41.3418 32.7176C41.3418 32.7198 41.3418 32.7219 41.3418 32.7241C41.3418 32.7263 41.3418 32.7285 41.3418 32.7307C41.3418 32.7329 41.3418 32.7351 41.3418 32.7373C41.3418 32.7394 41.3418 32.7416 41.3418 32.7438C41.3418 32.746 41.3418 32.7482 41.3418 32.7504C41.3418 32.7526 41.3418 32.7548 41.3418 32.7569C41.3418 32.7591 41.3418 32.7613 41.3418 32.7635C41.3418 32.7657 41.3418 32.7679 41.3418 32.7701C41.3418 32.7723 41.3418 32.7745 41.3418 32.7766C41.3418 32.7788 41.3418 32.781 41.3418 32.7832C41.3418 32.7854 41.3418 32.7876 41.3418 32.7898C41.3418 32.792 41.3418 32.7942 41.3418 32.7963C41.3418 32.7985 41.3418 32.8007 41.3418 32.8029C41.3418 32.8051 41.3418 32.8073 41.3418 32.8095C41.3418 32.8117 41.3418 32.8139 41.3418 32.816C41.3418 32.8182 41.3418 32.8204 41.3418 32.8226C41.3418 32.8248 41.3418 32.827 41.3418 32.8292C41.3418 32.8314 41.3418 32.8336 41.3418 32.8357C41.3418 32.8379 41.3418 32.8401 41.3418 32.8423C41.3418 32.8445 41.3418 32.8467 41.3418 32.8489C41.3418 32.8511 41.3418 32.8533 41.3418 32.8555C41.3418 32.8576 41.3418 32.8598 41.3418 32.862C41.3418 32.8642 41.3418 32.8664 41.3418 32.8686C41.3418 32.8708 41.3418 32.873 41.3418 32.8752C41.3418 32.8774 41.3418 32.8795 41.3418 32.8817C41.3418 32.8839 41.3418 32.8861 41.3418 32.8883C41.3418 32.8905 41.3418 32.8927 41.3418 32.8949C41.3418 32.8971 41.3418 32.8993 41.3418 32.9014C41.3418 32.9036 41.3418 32.9058 41.3418 32.908C41.3418 32.9102 41.3418 32.9124 41.3418 32.9146C41.3418 32.9168 41.3418 32.919 41.3418 32.9212C41.3418 32.9234 41.3418 32.9255 41.3418 32.9277C41.3418 32.9299 41.3418 32.9321 41.3418 32.9343C41.3418 32.9365 41.3418 32.9387 41.3418 32.9409C41.3418 32.9431 41.3418 32.9453 41.3418 32.9474C41.3418 32.9496 41.3418 32.9518 41.3418 32.954C41.3418 32.9562 41.3418 32.9584 41.3418 32.9606C41.3418 32.9628 41.3418 32.965 41.3418 32.9672C41.3418 32.9693 41.3418 32.9715 41.3418 32.9737C41.3418 32.9759 41.3418 32.9781 41.3418 32.9803C41.3418 32.9825 41.3418 32.9847 41.3418 32.9869C41.3418 32.9891 41.3418 32.9912 41.3418 32.9934C41.3418 32.9956 41.3418 32.9978 41.3418 33H43.3418C43.3418 32.9978 43.3418 32.9956 43.3418 32.9934C43.3418 32.9912 43.3418 32.9891 43.3418 32.9869C43.3418 32.9847 43.3418 32.9825 43.3418 32.9803C43.3418 32.9781 43.3418 32.9759 43.3418 32.9737C43.3418 32.9715 43.3418 32.9693 43.3418 32.9672C43.3418 32.965 43.3418 32.9628 43.3418 32.9606C43.3418 32.9584 43.3418 32.9562 43.3418 32.954C43.3418 32.9518 43.3418 32.9496 43.3418 32.9474C43.3418 32.9453 43.3418 32.9431 43.3418 32.9409C43.3418 32.9387 43.3418 32.9365 43.3418 32.9343C43.3418 32.9321 43.3418 32.9299 43.3418 32.9277C43.3418 32.9255 43.3418 32.9234 43.3418 32.9212C43.3418 32.919 43.3418 32.9168 43.3418 32.9146C43.3418 32.9124 43.3418 32.9102 43.3418 32.908C43.3418 32.9058 43.3418 32.9036 43.3418 32.9014C43.3418 32.8993 43.3418 32.8971 43.3418 32.8949C43.3418 32.8927 43.3418 32.8905 43.3418 32.8883C43.3418 32.8861 43.3418 32.8839 43.3418 32.8817C43.3418 32.8795 43.3418 32.8774 43.3418 32.8752C43.3418 32.873 43.3418 32.8708 43.3418 32.8686C43.3418 32.8664 43.3418 32.8642 43.3418 32.862C43.3418 32.8598 43.3418 32.8576 43.3418 32.8555C43.3418 32.8533 43.3418 32.8511 43.3418 32.8489C43.3418 32.8467 43.3418 32.8445 43.3418 32.8423C43.3418 32.8401 43.3418 32.8379 43.3418 32.8357C43.3418 32.8336 43.3418 32.8314 43.3418 32.8292C43.3418 32.827 43.3418 32.8248 43.3418 32.8226C43.3418 32.8204 43.3418 32.8182 43.3418 32.816C43.3418 32.8139 43.3418 32.8117 43.3418 32.8095C43.3418 32.8073 43.3418 32.8051 43.3418 32.8029C43.3418 32.8007 43.3418 32.7985 43.3418 32.7963C43.3418 32.7942 43.3418 32.792 43.3418 32.7898C43.3418 32.7876 43.3418 32.7854 43.3418 32.7832C43.3418 32.781 43.3418 32.7788 43.3418 32.7766C43.3418 32.7745 43.3418 32.7723 43.3418 32.7701C43.3418 32.7679 43.3418 32.7657 43.3418 32.7635C43.3418 32.7613 43.3418 32.7591 43.3418 32.7569C43.3418 32.7548 43.3418 32.7526 43.3418 32.7504C43.3418 32.7482 43.3418 32.746 43.3418 32.7438C43.3418 32.7416 43.3418 32.7394 43.3418 32.7373C43.3418 32.7351 43.3418 32.7329 43.3418 32.7307C43.3418 32.7285 43.3418 32.7263 43.3418 32.7241C43.3418 32.7219 43.3418 32.7198 43.3418 32.7176C43.3418 32.7154 43.3418 32.7132 43.3418 32.711C43.3418 32.7088 43.3418 32.7066 43.3418 32.7044C43.3418 32.7023 43.3418 32.7001 43.3418 32.6979C43.3418 32.6957 43.3418 32.6935 43.3418 32.6913C43.3418 32.6891 43.3418 32.687 43.3418 32.6848C43.3418 32.6826 43.3418 32.6804 43.3418 32.6782C43.3418 32.676 43.3418 32.6738 43.3418 32.6717C43.3418 32.6695 43.3418 32.6673 43.3418 32.6651C43.3418 32.6629 43.3418 32.6607 43.3418 32.6585C43.3418 32.6564 43.3418 32.6542 43.3418 32.652C43.3418 32.6498 43.3418 32.6476 43.3418 32.6454C43.3418 32.6432 43.3418 32.6411 43.3418 32.6389C43.3418 32.6367 43.3418 32.6345 43.3418 32.6323C43.3418 32.6301 43.3418 32.628 43.3418 32.6258C43.3418 32.6236 43.3418 32.6214 43.3418 32.6192C43.3418 32.617 43.3418 32.6149 43.3418 32.6127C43.3418 32.6105 43.3418 32.6083 43.3418 32.6061C43.3418 32.6039 43.3418 32.6018 43.3418 32.5996C43.3418 32.5974 43.3418 32.5952 43.3418 32.593C43.3418 32.5908 43.3418 32.5887 43.3418 32.5865C43.3418 32.5843 43.3418 32.5821 43.3418 32.5799C43.3418 32.5778 43.3418 32.5756 43.3418 32.5734C43.3418 32.5712 43.3418 32.569 43.3418 32.5668C43.3418 32.5647 43.3418 32.5625 43.3418 32.5603C43.3418 32.5581 43.3418 32.5559 43.3418 32.5538C43.3418 32.5516 43.3418 32.5494 43.3418 32.5472C43.3418 32.545 43.3418 32.5429 43.3418 32.5407C43.3418 32.5385 43.3418 32.5363 43.3418 32.5341C43.3418 32.532 43.3418 32.5298 43.3418 32.5276C43.3418 32.5254 43.3418 32.5232 43.3418 32.5211C43.3418 32.5189 43.3418 32.5167 43.3418 32.5145C43.3418 32.5123 43.3418 32.5102 43.3418 32.508C43.3418 32.5058 43.3418 32.5036 43.3418 32.5015C43.3418 32.4993 43.3418 32.4971 43.3418 32.4949C43.3418 32.4927 43.3418 32.4906 43.3418 32.4884C43.3418 32.4862 43.3418 32.484 43.3418 32.4819C43.3418 32.4797 43.3418 32.4775 43.3418 32.4753C43.3418 32.4732 43.3418 32.471 43.3418 32.4688C43.3418 32.4666 43.3418 32.4645 43.3418 32.4623C43.3418 32.4601 43.3418 32.4579 43.3418 32.4558C43.3418 32.4536 43.3418 32.4514 43.3418 32.4492C43.3418 32.4471 43.3418 32.4449 43.3418 32.4427C43.3418 32.4405 43.3418 32.4384 43.3418 32.4362C43.3418 32.434 43.3418 32.4318 43.3418 32.4297C43.3418 32.4275 43.3418 32.4253 43.3418 32.4232C43.3418 32.421 43.3418 32.4188 43.3418 32.4166C43.3418 32.4145 43.3418 32.4123 43.3418 32.4101C43.3418 32.4079 43.3418 32.4058 43.3418 32.4036C43.3418 32.4014 43.3418 32.3993 43.3418 32.3971C43.3418 32.3949 43.3418 32.3927 43.3418 32.3906C43.3418 32.3884 43.3418 32.3862 43.3418 32.3841C43.3418 32.3819 43.3418 32.3797 43.3418 32.3776C43.3418 32.3754 43.3418 32.3732 43.3418 32.371C43.3418 32.3689 43.3418 32.3667 43.3418 32.3645C43.3418 32.3624 43.3418 32.3602 43.3418 32.358C43.3418 32.3559 43.3418 32.3537 43.3418 32.3515C43.3418 32.3494 43.3418 32.3472 43.3418 32.345C43.3418 32.3429 43.3418 32.3407 43.3418 32.3385C43.3418 32.3364 43.3418 32.3342 43.3418 32.332C43.3418 32.3299 43.3418 32.3277 43.3418 32.3255C43.3418 32.3234 43.3418 32.3212 43.3418 32.319C43.3418 32.3169 43.3418 32.3147 43.3418 32.3126C43.3418 32.3104 43.3418 32.3082 43.3418 32.3061C43.3418 32.3039 43.3418 32.3017 43.3418 32.2996C43.3418 32.2974 43.3418 32.2952 43.3418 32.2931C43.3418 32.2909 43.3418 32.2888 43.3418 32.2866C43.3418 32.2844 43.3418 32.2823 43.3418 32.2801C43.3418 32.2779 43.3418 32.2758 43.3418 32.2736C43.3418 32.2715 43.3418 32.2693 43.3418 32.2671C43.3418 32.265 43.3418 32.2628 43.3418 32.2607C43.3418 32.2585 43.3418 32.2563 43.3418 32.2542C43.3418 32.252 43.3418 32.2499 43.3418 32.2477C43.3418 32.2456 43.3418 32.2434 43.3418 32.2412C43.3418 32.2391 43.3418 32.2369 43.3418 32.2348C43.3418 32.2326 43.3418 32.2304 43.3418 32.2283C43.3418 32.2261 43.3418 32.224 43.3418 32.2218C43.3418 32.2197 43.3418 32.2175 43.3418 32.2154C43.3418 32.2132 43.3418 32.211 43.3418 32.2089C43.3418 32.2067 43.3418 32.2046 43.3418 32.2024C43.3418 32.2003 43.3418 32.1981 43.3418 32.196C43.3418 32.1938 43.3418 32.1917 43.3418 32.1895C43.3418 32.1874 43.3418 32.1852 43.3418 32.183C43.3418 32.1809 43.3418 32.1787 43.3418 32.1766C43.3418 32.1744 43.3418 32.1723 43.3418 32.1701C43.3418 32.168 43.3418 32.1658 43.3418 32.1637C43.3418 32.1615 43.3418 32.1594 43.3418 32.1572C43.3418 32.1551 43.3418 32.1529 43.3418 32.1508C43.3418 32.1486 43.3418 32.1465 43.3418 32.1443C43.3418 32.1422 43.3418 32.1401 43.3418 32.1379C43.3418 32.1358 43.3418 32.1336 43.3418 32.1315C43.3418 32.1293 43.3418 32.1272 43.3418 32.125C43.3418 32.1229 43.3418 32.1207 43.3418 32.1186C43.3418 32.1164 43.3418 32.1143 43.3418 32.1122C43.3418 32.11 43.3418 32.1079 43.3418 32.1057C43.3418 32.1036 43.3418 32.1014 43.3418 32.0993C43.3418 32.0971 43.3418 32.095 43.3418 32.0929C43.3418 32.0907 43.3418 32.0886 43.3418 32.0864C43.3418 32.0843 43.3418 32.0822 43.3418 32.08C43.3418 32.0779 43.3418 32.0757 43.3418 32.0736C43.3418 32.0715 43.3418 32.0693 43.3418 32.0672C43.3418 32.065 43.3418 32.0629 43.3418 32.0608C43.3418 32.0586 43.3418 32.0565 43.3418 32.0543C43.3418 32.0522 43.3418 32.0501 43.3418 32.0479C43.3418 32.0458 43.3418 32.0437 43.3418 32.0415C43.3418 32.0394 43.3418 32.0372 43.3418 32.0351C43.3418 32.033 43.3418 32.0308 43.3418 32.0287C43.3418 32.0266 43.3418 32.0244 43.3418 32.0223C43.3418 32.0202 43.3418 32.018 43.3418 32.0159C43.3418 32.0138 43.3418 32.0116 43.3418 32.0095C43.3418 32.0074 43.3418 32.0052 43.3418 32.0031C43.3418 32.001 43.3418 31.9989 43.3418 31.9967C43.3418 31.9946 43.3418 31.9925 43.3418 31.9903C43.3418 31.9882 43.3418 31.9861 43.3418 31.9839C43.3418 31.9818 43.3418 31.9797 43.3418 31.9776C43.3418 31.9754 43.3418 31.9733 43.3418 31.9712C43.3418 31.969 43.3418 31.9669 43.3418 31.9648C43.3418 31.9627 43.3418 31.9605 43.3418 31.9584C43.3418 31.9563 43.3418 31.9542 43.3418 31.952C43.3418 31.9499 43.3418 31.9478 43.3418 31.9457C43.3418 31.9435 43.3418 31.9414 43.3418 31.9393C43.3418 31.9372 43.3418 31.9351 43.3418 31.9329C43.3418 31.9308 43.3418 31.9287 43.3418 31.9266C43.3418 31.9244 43.3418 31.9223 43.3418 31.9202C43.3418 31.9181 43.3418 31.916 43.3418 31.9138C43.3418 31.9117 43.3418 31.9096 43.3418 31.9075C43.3418 31.9054 43.3418 31.9033 43.3418 31.9011C43.3418 31.899 43.3418 31.8969 43.3418 31.8948C43.3418 31.8927 43.3418 31.8906 43.3418 31.8884C43.3418 31.8863 43.3418 31.8842 43.3418 31.8821C43.3418 31.88 43.3418 31.8779 43.3418 31.8758C43.3418 31.8736 43.3418 31.8715 43.3418 31.8694C43.3418 31.8673 43.3418 31.8652 43.3418 31.8631C43.3418 31.861 43.3418 31.8589 43.3418 31.8567C43.3418 31.8546 43.3418 31.8525 43.3418 31.8504C43.3418 31.8483 43.3418 31.8462 43.3418 31.8441C43.3418 31.842 43.3418 31.8399 43.3418 31.8378C43.3418 31.8356 43.3418 31.8335 43.3418 31.8314C43.3418 31.8293 43.3418 31.8272 43.3418 31.8251C43.3418 31.823 43.3418 31.8209 43.3418 31.8188C43.3418 31.8167 43.3418 31.8146 43.3418 31.8125C43.3418 31.8104 43.3418 31.8083 43.3418 31.8062C43.3418 31.8041 43.3418 31.802 43.3418 31.7999C43.3418 31.7978 43.3418 31.7957 43.3418 31.7936C43.3418 31.7915 43.3418 31.7894 43.3418 31.7873C43.3418 31.7852 43.3418 31.7831 43.3418 31.781C43.3418 31.7789 43.3418 31.7768 43.3418 31.7747C43.3418 31.7726 43.3418 31.7705 43.3418 31.7684C43.3418 31.7663 43.3418 31.7642 43.3418 31.7621C43.3418 31.76 43.3418 31.7579 43.3418 31.7558C43.3418 31.7537 43.3418 31.7516 43.3418 31.7495C43.3418 31.7474 43.3418 31.7453 43.3418 31.7432C43.3418 31.7411 43.3418 31.7391 43.3418 31.737C43.3418 31.7349 43.3418 31.7328 43.3418 31.7307C43.3418 31.7286 43.3418 31.7265 43.3418 31.7244C43.3418 31.7223 43.3418 31.7202 43.3418 31.7182C43.3418 31.7161 43.3418 31.714 43.3418 31.7119C43.3418 31.7098 43.3418 31.7077 43.3418 31.7056C43.3418 31.7035 43.3418 31.7015 43.3418 31.6994C43.3418 31.6973 43.3418 31.6952 43.3418 31.6931C43.3418 31.691 43.3418 31.6889 43.3418 31.6869C43.3418 31.6848 43.3418 31.6827 43.3418 31.6806C43.3418 31.6785 43.3418 31.6765 43.3418 31.6744C43.3418 31.6723 43.3418 31.6702 43.3418 31.6681C43.3418 31.6661 43.3418 31.664 43.3418 31.6619C43.3418 31.6598 43.3418 31.6577 43.3418 31.6557C43.3418 31.6536 43.3418 31.6515 43.3418 31.6494C43.3418 31.6474 43.3418 31.6453 43.3418 31.6432C43.3418 31.6411 43.3418 31.6391 43.3418 31.637C43.3418 31.6349 43.3418 31.6328 43.3418 31.6308C43.3418 31.6287 43.3418 31.6266 43.3418 31.6245C43.3418 31.6225 43.3418 31.6204 43.3418 31.6183C43.3418 31.6163 43.3418 31.6142 43.3418 31.6121C43.3418 31.6101 43.3418 31.608 43.3418 31.6059C43.3418 31.6039 43.3418 31.6018 43.3418 31.5997C43.3418 31.5977 43.3418 31.5956 43.3418 31.5935C43.3418 31.5915 43.3418 31.5894 43.3418 31.5873C43.3418 31.5853 43.3418 31.5832 43.3418 31.5811C43.3418 31.5791 43.3418 31.577 43.3418 31.5749C43.3418 31.5729 43.3418 31.5708 43.3418 31.5688C43.3418 31.5667 43.3418 31.5646 43.3418 31.5626C43.3418 31.5605 43.3418 31.5585 43.3418 31.5564C43.3418 31.5543 43.3418 31.5523 43.3418 31.5502C43.3418 31.5482 43.3418 31.5461 43.3418 31.5441C43.3418 31.542 43.3418 31.5399 43.3418 31.5379C43.3418 31.5358 43.3418 31.5338 43.3418 31.5317C43.3418 31.5297 43.3418 31.5276 43.3418 31.5256C43.3418 31.5235 43.3418 31.5215 43.3418 31.5194C43.3418 31.5174 43.3418 31.5153 43.3418 31.5133C43.3418 31.5112 43.3418 31.5092 43.3418 31.5071C43.3418 31.5051 43.3418 31.503 43.3418 31.501C43.3418 31.4989 43.3418 31.4969 43.3418 31.4948C43.3418 31.4928 43.3418 31.4907 43.3418 31.4887C43.3418 31.4867 43.3418 31.4846 43.3418 31.4826C43.3418 31.4805 43.3418 31.4785 43.3418 31.4764C43.3418 31.4744 43.3418 31.4724 43.3418 31.4703C43.3418 31.4683 43.3418 31.4662 43.3418 31.4642C43.3418 31.4622 43.3418 31.4601 43.3418 31.4581C43.3418 31.456 43.3418 31.454 43.3418 31.452C43.3418 31.4499 43.3418 31.4479 43.3418 31.4459C43.3418 31.4438 43.3418 31.4418 43.3418 31.4398C43.3418 31.4377 43.3418 31.4357 43.3418 31.4337C43.3418 31.4316 43.3418 31.4296 43.3418 31.4276C43.3418 31.4255 43.3418 31.4235 43.3418 31.4215C43.3418 31.4194 43.3418 31.4174 43.3418 31.4154C43.3418 31.4134 43.3418 31.4113 43.3418 31.4093C43.3418 31.4073 43.3418 31.4053 43.3418 31.4032C43.3418 31.4012 43.3418 31.3992 43.3418 31.3972C43.3418 31.3951 43.3418 31.3931 43.3418 31.3911C43.3418 31.3891 43.3418 31.387 43.3418 31.385C43.3418 31.383 43.3418 31.381 43.3418 31.379C43.3418 31.3769 43.3418 31.3749 43.3418 31.3729C43.3418 31.3709 43.3418 31.3689 43.3418 31.3668C43.3418 31.3648 43.3418 31.3628 43.3418 31.3608C43.3418 31.3588 43.3418 31.3568 43.3418 31.3547C43.3418 31.3527 43.3418 31.3507 43.3418 31.3487C43.3418 31.3467 43.3418 31.3447 43.3418 31.3427C43.3418 31.3407 43.3418 31.3386 43.3418 31.3366C43.3418 31.3346 43.3418 31.3326 43.3418 31.3306C43.3418 31.3286 43.3418 31.3266 43.3418 31.3246C43.3418 31.3226 43.3418 31.3206 43.3418 31.3186C43.3418 31.3166 43.3418 31.3145 43.3418 31.3125C43.3418 31.3105 43.3418 31.3085 43.3418 31.3065C43.3418 31.3045 43.3418 31.3025 43.3418 31.3005C43.3418 31.2985 43.3418 31.2965 43.3418 31.2945C43.3418 31.2925 43.3418 31.2905 43.3418 31.2885C43.3418 31.2865 43.3418 31.2845 43.3418 31.2825C43.3418 31.2805 43.3418 31.2785 43.3418 31.2765C43.3418 31.2745 43.3418 31.2726 43.3418 31.2706C43.3418 31.2686 43.3418 31.2666 43.3418 31.2646C43.3418 31.2626 43.3418 31.2606 43.3418 31.2586C43.3418 31.2566 43.3418 31.2546 43.3418 31.2526C43.3418 31.2506 43.3418 31.2487 43.3418 31.2467C43.3418 31.2447 43.3418 31.2427 43.3418 31.2407C43.3418 31.2387 43.3418 31.2367 43.3418 31.2347C43.3418 31.2328 43.3418 31.2308 43.3418 31.2288C43.3418 31.2268 43.3418 31.2248 43.3418 31.2228C43.3418 31.2209 43.3418 31.2189 43.3418 31.2169C43.3418 31.2149 43.3418 31.2129 43.3418 31.211C43.3418 31.209 43.3418 31.207 43.3418 31.205C43.3418 31.2031 43.3418 31.2011 43.3418 31.1991C43.3418 31.1971 43.3418 31.1952 43.3418 31.1932C43.3418 31.1912 43.3418 31.1892 43.3418 31.1873C43.3418 31.1853 43.3418 31.1833 43.3418 31.1813C43.3418 31.1794 43.3418 31.1774 43.3418 31.1754C43.3418 31.1735 43.3418 31.1715 43.3418 31.1695C43.3418 31.1676 43.3418 31.1656 43.3418 31.1636C43.3418 31.1617 43.3418 31.1597 43.3418 31.1577C43.3418 31.1558 43.3418 31.1538 43.3418 31.1518C43.3418 31.1499 43.3418 31.1479 43.3418 31.146C43.3418 31.144 43.3418 31.142 43.3418 31.1401C43.3418 31.1381 43.3418 31.1362 43.3418 31.1342C43.3418 31.1322 43.3418 31.1303 43.3418 31.1283C43.3418 31.1264 43.3418 31.1244 43.3418 31.1225C43.3418 31.1205 43.3418 31.1185 43.3418 31.1166C43.3418 31.1146 43.3418 31.1127 43.3418 31.1107C43.3418 31.1088 43.3418 31.1068 43.3418 31.1049C43.3418 31.1029 43.3418 31.101 43.3418 31.099C43.3418 31.0971 43.3418 31.0951 43.3418 31.0932C43.3418 31.0913 43.3418 31.0893 43.3418 31.0874C43.3418 31.0854 43.3418 31.0835 43.3418 31.0815C43.3418 31.0796 43.3418 31.0776 43.3418 31.0757C43.3418 31.0738 43.3418 31.0718 43.3418 31.0699C43.3418 31.0679 43.3418 31.066 43.3418 31.0641C43.3418 31.0621 43.3418 31.0602 43.3418 31.0583C43.3418 31.0563 43.3418 31.0544 43.3418 31.0524C43.3418 31.0505 43.3418 31.0486 43.3418 31.0466C43.3418 31.0447 43.3418 31.0428 43.3418 31.0409C43.3418 31.0389 43.3418 31.037 43.3418 31.0351C43.3418 31.0331 43.3418 31.0312 43.3418 31.0293C43.3418 31.0273 43.3418 31.0254 43.3418 31.0235C43.3418 31.0216 43.3418 31.0196 43.3418 31.0177C43.3418 31.0158 43.3418 31.0139 43.3418 31.012C43.3418 31.01 43.3418 31.0081 43.3418 31.0062C43.3418 31.0043 43.3418 31.0023 43.3418 31.0004C43.3418 30.9985 43.3418 30.9966 43.3418 30.9947C43.3418 30.9928 43.3418 30.9908 43.3418 30.9889C43.3418 30.987 43.3418 30.9851 43.3418 30.9832C43.3418 30.9813 43.3418 30.9794 43.3418 30.9774C43.3418 30.9755 43.3418 30.9736 43.3418 30.9717C43.3418 30.9698 43.3418 30.9679 43.3418 30.966C43.3418 30.9641 43.3418 30.9622 43.3418 30.9603C43.3418 30.9584 43.3418 30.9564 43.3418 30.9545C43.3418 30.9526 43.3418 30.9507 43.3418 30.9488C43.3418 30.9469 43.3418 30.945 43.3418 30.9431C43.3418 30.9412 43.3418 30.9393 43.3418 30.9374C43.3418 30.9355 43.3418 30.9336 43.3418 30.9317C43.3418 30.9298 43.3418 30.9279 43.3418 30.926C43.3418 30.9241 43.3418 30.9223 43.3418 30.9204C43.3418 30.9185 43.3418 30.9166 43.3418 30.9147C43.3418 30.9128 43.3418 30.9109 43.3418 30.909C43.3418 30.9071 43.3418 30.9052 43.3418 30.9033C43.3418 30.9015 43.3418 30.8996 43.3418 30.8977C43.3418 30.8958 43.3418 30.8939 43.3418 30.892C43.3418 30.8901 43.3418 30.8883 43.3418 30.8864C43.3418 30.8845 43.3418 30.8826 43.3418 30.8807C43.3418 30.8789 43.3418 30.877 43.3418 30.8751C43.3418 30.8732 43.3418 30.8713 43.3418 30.8695C43.3418 30.8676 43.3418 30.8657 43.3418 30.8638C43.3418 30.862 43.3418 30.8601 43.3418 30.8582C43.3418 30.8563 43.3418 30.8545 43.3418 30.8526C43.3418 30.8507 43.3418 30.8489 43.3418 30.847C43.3418 30.8451 43.3418 30.8433 43.3418 30.8414C43.3418 30.8395 43.3418 30.8376 43.3418 30.8358C43.3418 30.8339 43.3418 30.8321 43.3418 30.8302C43.3418 30.8283 43.3418 30.8265 43.3418 30.8246C43.3418 30.8227 43.3418 30.8209 43.3418 30.819C43.3418 30.8172 43.3418 30.8153 43.3418 30.8134C43.3418 30.8116 43.3418 30.8097 43.3418 30.8079C43.3418 30.806 43.3418 30.8042 43.3418 30.8023C43.3418 30.8005 43.3418 30.7986 43.3418 30.7968C43.3418 30.7949 43.3418 30.7931 43.3418 30.7912C43.3418 30.7894 43.3418 30.7875 43.3418 30.7857C43.3418 30.7838 43.3418 30.782 43.3418 30.7801C43.3418 30.7783 43.3418 30.7764 43.3418 30.7746C43.3418 30.7727 43.3418 30.7709 43.3418 30.7691C43.3418 30.7672 43.3418 30.7654 43.3418 30.7635C43.3418 30.7617 43.3418 30.7599 43.3418 30.758C43.3418 30.7562 43.3418 30.7543 43.3418 30.7525C43.3418 30.7507 43.3418 30.7488 43.3418 30.747C43.3418 30.7452 43.3418 30.7433 43.3418 30.7415C43.3418 30.7397 43.3418 30.7378 43.3418 30.736C43.3418 30.7342 43.3418 30.7324 43.3418 30.7305C43.3418 30.7287 43.3418 30.7269 43.3418 30.7251C43.3418 30.7232 43.3418 30.7214 43.3418 30.7196C43.3418 30.7178 43.3418 30.7159 43.3418 30.7141C43.3418 30.7123 43.3418 30.7105 43.3418 30.7087C43.3418 30.7068 43.3418 30.705 43.3418 30.7032C43.3418 30.7014 43.3418 30.6996 43.3418 30.6978C43.3418 30.6959 43.3418 30.6941 43.3418 30.6923C43.3418 30.6905 43.3418 30.6887 43.3418 30.6869C43.3418 30.6851 43.3418 30.6833 43.3418 30.6814C43.3418 30.6796 43.3418 30.6778 43.3418 30.676C43.3418 30.6742 43.3418 30.6724 43.3418 30.6706C43.3418 30.6688 43.3418 30.667 43.3418 30.6652C43.3418 30.6634 43.3418 30.6616 43.3418 30.6598C43.3418 30.658 43.3418 30.6562 43.3418 30.6544C43.3418 30.6526 43.3418 30.6508 43.3418 30.649C43.3418 30.6472 43.3418 30.6454 43.3418 30.6436C43.3418 30.6418 43.3418 30.64 43.3418 30.6382C43.3418 30.6364 43.3418 30.6347 43.3418 30.6329C43.3418 30.6311 43.3418 30.6293 43.3418 30.6275C43.3418 30.6257 43.3418 30.6239 43.3418 30.6221C43.3418 30.6204 43.3418 30.6186 43.3418 30.6168C43.3418 30.615 43.3418 30.6132 43.3418 30.6114C43.3418 30.6097 43.3418 30.6079 43.3418 30.6061C43.3418 30.6043 43.3418 30.6025 43.3418 30.6008C43.3418 30.599 43.3418 30.5972 43.3418 30.5954C43.3418 30.5937 43.3418 30.5919 43.3418 30.5901C43.3418 30.5883 43.3418 30.5866 43.3418 30.5848C43.3418 30.583 43.3418 30.5813 43.3418 30.5795C43.3418 30.5777 43.3418 30.576 43.3418 30.5742C43.3418 30.5724 43.3418 30.5707 43.3418 30.5689C43.3418 30.5671 43.3418 30.5654 43.3418 30.5636C43.3418 30.5619 43.3418 30.5601 43.3418 30.5583C43.3418 30.5566 43.3418 30.5548 43.3418 30.5531C43.3418 30.5513 43.3418 30.5495 43.3418 30.5478C43.3418 30.546 43.3418 30.5443 43.3418 30.5425C43.3418 30.5408 43.3418 30.539 43.3418 30.5373C43.3418 30.5355 43.3418 30.5338 43.3418 30.532C43.3418 30.5303 43.3418 30.5285 43.3418 30.5268C43.3418 30.525 43.3418 30.5233 43.3418 30.5216C43.3418 30.5198 43.3418 30.5181 43.3418 30.5163C43.3418 30.5146 43.3418 30.5128 43.3418 30.5111C43.3418 30.5094 43.3418 30.5076 43.3418 30.5059C43.3418 30.5042 43.3418 30.5024 43.3418 30.5007C43.3418 30.499 43.3418 30.4972 43.3418 30.4955C43.3418 30.4938 43.3418 30.492 43.3418 30.4903C43.3418 30.4886 43.3418 30.4868 43.3418 30.4851C43.3418 30.4834 43.3418 30.4817 43.3418 30.4799C43.3418 30.4782 43.3418 30.4765 43.3418 30.4748C43.3418 30.473 43.3418 30.4713 43.3418 30.4696C43.3418 30.4679 43.3418 30.4662 43.3418 30.4644C43.3418 30.4627 43.3418 30.461 43.3418 30.4593C43.3418 30.4576 43.3418 30.4559 43.3418 30.4541C43.3418 30.4524 43.3418 30.4507 43.3418 30.449C43.3418 30.4473 43.3418 30.4456 43.3418 30.4439C43.3418 30.4422 43.3418 30.4405 43.3418 30.4388C43.3418 30.4371 43.3418 30.4353 43.3418 30.4336C43.3418 30.4319 43.3418 30.4302 43.3418 30.4285C43.3418 30.4268 43.3418 30.4251 43.3418 30.4234C43.3418 30.4217 43.3418 30.42 43.3418 30.4183C43.3418 30.4166 43.3418 30.4149 43.3418 30.4133C43.3418 30.4116 43.3418 30.4099 43.3418 30.4082C43.3418 30.4065 43.3418 30.4048 43.3418 30.4031C43.3418 30.4014 43.3418 30.3997 43.3418 30.398C43.3418 30.3963 43.3418 30.3947 43.3418 30.393C43.3418 30.3913 43.3418 30.3896 43.3418 30.3879C43.3418 30.3862 43.3418 30.3846 43.3418 30.3829C43.3418 30.3812 43.3418 30.3795 43.3418 30.3778C43.3418 30.3762 43.3418 30.3745 43.3418 30.3728C43.3418 30.3711 43.3418 30.3695 43.3418 30.3678C43.3418 30.3661 43.3418 30.3644 43.3418 30.3628C43.3418 30.3611 43.3418 30.3594 43.3418 30.3578C43.3418 30.3561 43.3418 30.3544 43.3418 30.3528C43.3418 30.3511 43.3418 30.3494 43.3418 30.3478C43.3418 30.3461 43.3418 30.3445 43.3418 30.3428C43.3418 30.3411 43.3418 30.3395 43.3418 30.3378C43.3418 30.3362 43.3418 30.3345 43.3418 30.3328C43.3418 30.3312 43.3418 30.3295 43.3418 30.3279C43.3418 30.3262 43.3418 30.3246 43.3418 30.3229C43.3418 30.3213 43.3418 30.3196 43.3418 30.318C43.3418 30.3163 43.3418 30.3147 43.3418 30.313C43.3418 30.3114 43.3418 30.3097 43.3418 30.3081C43.3418 30.3065 43.3418 30.3048 43.3418 30.3032C43.3418 30.3015 43.3418 30.2999 43.3418 30.2983C43.3418 30.2966 43.3418 30.295 43.3418 30.2934C43.3418 30.2917 43.3418 30.2901 43.3418 30.2884C43.3418 30.2868 43.3418 30.2852 43.3418 30.2836C43.3418 30.2819 43.3418 30.2803 43.3418 30.2787C43.3418 30.277 43.3418 30.2754 43.3418 30.2738C43.3418 30.2722 43.3418 30.2705 43.3418 30.2689C43.3418 30.2673 43.3418 30.2657 43.3418 30.264C43.3418 30.2624 43.3418 30.2608 43.3418 30.2592C43.3418 30.2576 43.3418 30.256 43.3418 30.2543C43.3418 30.2527 43.3418 30.2511 43.3418 30.2495C43.3418 30.2479 43.3418 30.2463 43.3418 30.2447C43.3418 30.2431 43.3418 30.2415 43.3418 30.2398C43.3418 30.2382 43.3418 30.2366 43.3418 30.235C43.3418 30.2334 43.3418 30.2318 43.3418 30.2302C43.3418 30.2286 43.3418 30.227 43.3418 30.2254C43.3418 30.2238 43.3418 30.2222 43.3418 30.2206C43.3418 30.219 43.3418 30.2174 43.3418 30.2158C43.3418 30.2142 43.3418 30.2126 43.3418 30.2111C43.3418 30.2095 43.3418 30.2079 43.3418 30.2063C43.3418 30.2047 43.3418 30.2031 43.3418 30.2015C43.3418 30.1999 43.3418 30.1983 43.3418 30.1968C43.3418 30.1952 43.3418 30.1936 43.3418 30.192C43.3418 30.1904 43.3418 30.1889 43.3418 30.1873C43.3418 30.1857 43.3418 30.1841 43.3418 30.1825C43.3418 30.181 43.3418 30.1794 43.3418 30.1778C43.3418 30.1762 43.3418 30.1747 43.3418 30.1731C43.3418 30.1715 43.3418 30.17 43.3418 30.1684C43.3418 30.1668 43.3418 30.1653 43.3418 30.1637C43.3418 30.1621 43.3418 30.1606 43.3418 30.159C43.3418 30.1574 43.3418 30.1559 43.3418 30.1543C43.3418 30.1528 43.3418 30.1512 43.3418 30.1496C43.3418 30.1481 43.3418 30.1465 43.3418 30.145C43.3418 30.1434 43.3418 30.1419 43.3418 30.1403C43.3418 30.1388 43.3418 30.1372 43.3418 30.1357C43.3418 30.1341 43.3418 30.1326 43.3418 30.131C43.3418 30.1295 43.3418 30.1279 43.3418 30.1264C43.3418 30.1248 43.3418 30.1233 43.3418 30.1218C43.3418 30.1202 43.3418 30.1187 43.3418 30.1171C43.3418 30.1156 43.3418 30.1141 43.3418 30.1125C43.3418 30.111 43.3418 30.1095 43.3418 30.1079C43.3418 30.1064 43.3418 30.1049 43.3418 30.1033C43.3418 30.1018 43.3418 30.1003 43.3418 30.0988C43.3418 30.0972 43.3418 30.0957 43.3418 30.0942C43.3418 30.0927 43.3418 30.0911 43.3418 30.0896C43.3418 30.0881 43.3418 30.0866 43.3418 30.085C43.3418 30.0835 43.3418 30.082 43.3418 30.0805C43.3418 30.079 43.3418 30.0775 43.3418 30.0759C43.3418 30.0744 43.3418 30.0729 43.3418 30.0714C43.3418 30.0699 43.3418 30.0684 43.3418 30.0669C43.3418 30.0654 43.3418 30.0639 43.3418 30.0624C43.3418 30.0609 43.3418 30.0594 43.3418 30.0579C43.3418 30.0564 43.3418 30.0549 43.3418 30.0534C43.3418 30.0519 43.3418 30.0504 43.3418 30.0489C43.3418 30.0474 43.3418 30.0459 43.3418 30.0444C43.3418 30.0429 43.3418 30.0414 43.3418 30.0399C43.3418 30.0384 43.3418 30.0369 43.3418 30.0354C43.3418 30.0339 43.3418 30.0325 43.3418 30.031C43.3418 30.0295 43.3418 30.028 43.3418 30.0265C43.3418 30.025 43.3418 30.0236 43.3418 30.0221C43.3418 30.0206 43.3418 30.0191 43.3418 30.0176C43.3418 30.0162 43.3418 30.0147 43.3418 30.0132C43.3418 30.0118 43.3418 30.0103 43.3418 30.0088C43.3418 30.0073 43.3418 30.0059 43.3418 30.0044C43.3418 30.0029 43.3418 30.0015 43.3418 30H41.3418ZM42.3418 29C42.0843 29 41.8301 28.9026 41.6347 28.7071L40.2205 30.1213C40.8061 30.7069 41.5756 31 42.3418 31V29ZM26.3418 34C25.7895 34 25.3418 33.5523 25.3418 33H23.3418C23.3418 34.6569 24.6849 36 26.3418 36V34ZM40.3418 36C41.9986 36 43.3418 34.6569 43.3418 33H41.3418C41.3418 33.5523 40.8941 34 40.3418 34V36ZM40.3418 22C40.8941 22 41.3418 22.4477 41.3418 23H43.3418C43.3418 21.3431 41.9987 20 40.3418 20V22ZM26.3418 20C24.6849 20 23.3418 21.3431 23.3418 23H25.3418C25.3418 22.4477 25.7895 22 26.3418 22V20Z" fill="white"/>
<defs>
<filter id="filter0_d_204_658" x="0.341797" y="0" width="66" height="66" filterUnits="userSpaceOnUse" color-interpolation-filters="sRGB">
<feFlood flood-opacity="0" result="BackgroundImageFix"/>
<feColorMatrix in="SourceAlpha" type="matrix" values="0 0 0 0 0 0 0 0 0 0 0 0 0 0 0 0 0 0 127 0" result="hardAlpha"/>
<feMorphology radius="10" operator="erode" in="SourceAlpha" result="effect1_dropShadow_204_658"/>
<feOffset dy="5"/>
<feGaussianBlur stdDeviation="12.5"/>
<feColorMatrix type="matrix" values="0 0 0 0 0.659958 0 0 0 0 0.220108 0 0 0 0 0.643137 0 0 0 1 0"/>
<feBlend mode="normal" in2="BackgroundImageFix" result="effect1_dropShadow_204_658"/>
<feBlend mode="normal" in="SourceGraphic" in2="effect1_dropShadow_204_658" result="shape"/>
</filter>
<linearGradient id="paint0_linear_204_658" x1="55.9037" y1="21.1564" x2="28.2511" y2="12.0325" gradientUnits="userSpaceOnUse">
<stop stop-color="#703CF4"/>
<stop offset="1" stop-color="#C86DD7"/>
</linearGradient>
</defs>
</svg>
